<svg id="Layer_1" data-name="Layer 1" xmlns="http://www.w3.org/2000/svg" viewBox="0 0 100 100"><defs><style>.cls-1{fill:#a4c639;}.cls-2{fill:#fff;}</style></defs><title>android_logo</title><g id="b"><ellipse class="cls-1" cx="51" cy="25.43" rx="20.91" ry="19.3"/><path class="cls-2" d="M51,46.38c-12.44,0-22.56-9.4-22.56-21s10.12-21,22.56-21,22.56,9.4,22.56,21S63.44,46.38,51,46.38ZM51,7.79c-10.62,0-19.25,7.91-19.25,17.64S40.38,43.07,51,43.07s19.25-7.91,19.25-17.64S61.61,7.79,51,7.79Z"/><rect class="cls-1" x="30.09" y="20.6" width="41.81" height="41.81" rx="5.05" ry="5.05"/><path class="cls-2" d="M66.85,64.07H35.15a6.72,6.72,0,0,1-6.71-6.71V25.66A6.72,6.72,0,0,1,35.15,19h31.7a6.72,6.72,0,0,1,6.71,6.71v31.7A6.72,6.72,0,0,1,66.85,64.07ZM35.15,22.26a3.4,3.4,0,0,0-3.4,3.4v31.7a3.4,3.4,0,0,0,3.4,3.4h31.7a3.4,3.4,0,0,0,3.4-3.4V25.66a3.4,3.4,0,0,0-3.4-3.4Z"/></g><g id="a"><path class="cls-1" d="M37.3,1h0a1.49,1.49,0,0,0-.58,2l8.13,14.67a1.49,1.49,0,0,0,2,.58h0a1.49,1.49,0,0,0,.58-2L39.33,1.6A1.49,1.49,0,0,0,37.3,1Z"/><path class="cls-2" d="M46.16,19.31a2.33,2.33,0,0,1-.64-.09,2.31,2.31,0,0,1-1.39-1.11L36,3.44A2.32,2.32,0,0,1,36.9.29h0a2.32,2.32,0,0,1,3.15.9l8.13,14.67a2.32,2.32,0,0,1-2,3.45ZM37.7,1.74a.67.67,0,0,0-.26.91l8.13,14.67a.67.67,0,0,0,1.17-.65L38.61,2a.67.67,0,0,0-.91-.26Z"/><path id="c" class="cls-1" d="M78.34,25.43h0a5.51,5.51,0,0,0-5.51,5.51V50.47A5.51,5.51,0,0,0,78.34,56h0a5.51,5.51,0,0,0,5.51-5.51V30.94A5.51,5.51,0,0,0,78.34,25.43Z"/><path class="cls-2" d="M78.34,56.81A6.35,6.35,0,0,1,72,50.47V30.94a6.34,6.34,0,1,1,12.68,0V50.47A6.35,6.35,0,0,1,78.34,56.81Zm0-30.55a4.69,4.69,0,0,0-4.69,4.69V50.47a4.69,4.69,0,0,0,9.37,0V30.94A4.69,4.69,0,0,0,78.34,26.26Z"/><path id="c-2" data-name="c" class="cls-1" d="M58.81,47.71h0a5.51,5.51,0,0,0-5.51,5.51V72.75a5.51,5.51,0,0,0,5.51,5.51h0a5.51,5.51,0,0,0,5.51-5.51V53.23A5.51,5.51,0,0,0,58.81,47.71Z"/><path class="cls-2" d="M58.81,79.09a6.35,6.35,0,0,1-6.34-6.34V53.23a6.34,6.34,0,1,1,12.68,0V72.75A6.35,6.35,0,0,1,58.81,79.09Zm0-30.55a4.69,4.69,0,0,0-4.69,4.69V72.75a4.69,4.69,0,0,0,9.37,0V53.23A4.69,4.69,0,0,0,58.81,48.54Z"/></g><g id="a-2" data-name="a"><path class="cls-1" d="M64.7,1h0a1.49,1.49,0,0,1,.58,2L57.15,17.71a1.49,1.49,0,0,1-2,.58h0a1.49,1.49,0,0,1-.58-2L62.67,1.6A1.49,1.49,0,0,1,64.7,1Z"/><path class="cls-2" d="M55.84,19.31a2.32,2.32,0,0,1-2-3.45L61.94,1.2A2.32,2.32,0,0,1,65.1.29h0A2.32,2.32,0,0,1,66,3.44L57.87,18.11a2.3,2.3,0,0,1-1.39,1.11A2.33,2.33,0,0,1,55.84,19.31ZM64,1.65a.67.67,0,0,0-.58.34L55.26,16.66a.67.67,0,0,0,1.17.65L64.56,2.64a.67.67,0,0,0-.26-.91h0A.66.66,0,0,0,64,1.65Z"/><path id="c-3" data-name="c" class="cls-1" d="M23.66,25.43h0a5.51,5.51,0,0,1,5.51,5.51V50.47A5.51,5.51,0,0,1,23.66,56h0a5.51,5.51,0,0,1-5.51-5.51V30.94A5.51,5.51,0,0,1,23.66,25.43Z"/><path class="cls-2" d="M23.66,56.81a6.35,6.35,0,0,1-6.34-6.34V30.94a6.34,6.34,0,1,1,12.68,0V50.47A6.35,6.35,0,0,1,23.66,56.81Zm0-30.55A4.69,4.69,0,0,0,19,30.94V50.47a4.69,4.69,0,1,0,9.37,0V30.94A4.69,4.69,0,0,0,23.66,26.26Z"/><path id="c-4" data-name="c" class="cls-1" d="M43.19,47.71h0a5.51,5.51,0,0,1,5.51,5.51V72.75a5.51,5.51,0,0,1-5.51,5.51h0a5.51,5.51,0,0,1-5.51-5.51V53.23A5.51,5.51,0,0,1,43.19,47.71Z"/><path class="cls-2" d="M43.19,79.09a6.35,6.35,0,0,1-6.34-6.34V53.23a6.34,6.34,0,0,1,12.68,0V72.75A6.35,6.35,0,0,1,43.19,79.09Zm0-30.55a4.69,4.69,0,0,0-4.69,4.69V72.75a4.69,4.69,0,1,0,9.37,0V53.23A4.69,4.69,0,0,0,43.19,48.54Z"/></g><g id="b-2" data-name="b"><ellipse class="cls-1" cx="51" cy="25.43" rx="20.91" ry="19.3"/><rect class="cls-1" x="30.09" y="20.6" width="41.81" height="41.81" rx="5.05" ry="5.05"/></g><rect class="cls-2" x="29.18" y="25.41" width="43.65" height="1.65"/><circle class="cls-2" cx="41.35" cy="16.01" r="0.92"/><path class="cls-2" d="M41.35,17.76A1.75,1.75,0,1,1,43.1,16,1.75,1.75,0,0,1,41.35,17.76Zm0-1.84a.09.09,0,1,0,.09.09A.09.09,0,0,0,41.35,15.92Z"/><circle class="cls-2" cx="60.65" cy="16.01" r="0.92"/><path class="cls-2" d="M60.65,17.76A1.75,1.75,0,1,1,62.39,16,1.75,1.75,0,0,1,60.65,17.76Zm0-1.84a.09.09,0,1,0,.09.09A.09.09,0,0,0,60.65,15.92Z"/></svg>