<svg id="Layer_1" data-name="Layer 1" xmlns="http://www.w3.org/2000/svg" viewBox="0 0 100 100"><title>appletv_logo</title><g id="fdDsMM.tif"><path d="M36.2,15c-6.87,5.21-6,14,1.07,17.91,0,.05.05.11,0,.15a21.24,21.24,0,0,1-6.9,10.57,4.56,4.56,0,0,1-4.17.8A8.11,8.11,0,0,1,24.7,44a10.09,10.09,0,0,0-9.23,0,5.55,5.55,0,0,1-7-1.52A27.45,27.45,0,0,1,1,23.73a13.48,13.48,0,0,1,2.26-7.85C5.53,12.56,8.65,10.7,12.74,11A11.64,11.64,0,0,1,16.63,12a6.42,6.42,0,0,0,5.75,0,11.42,11.42,0,0,1,8.69-.74A9.56,9.56,0,0,1,36.2,15Z"/><path d="M86.46,43.92H79.32l-12.14-33H75l8.22,25.71L91.38,11H99Z"/><path d="M56.14,2.54v8.21l7.73.15V16H56.36a9.47,9.47,0,0,0-.18,1.24c0,5.31,0,10.63,0,15.94a9.58,9.58,0,0,0,.61,3,3.53,3.53,0,0,0,3.46,2.48c1.13,0,2.26,0,3.56,0v5.24a15.46,15.46,0,0,1-9.06.14c-3.33-1.11-4.81-3.7-5.29-7a34.62,34.62,0,0,1-.33-4.69c0-4.77,0-9.54,0-14.31,0-.59,0-1.18,0-2H44.06V10.93l5-.19v-6Z"/><path d="M19.41,9.95C18.63,6,22.6.42,27.92,0,29.2,4.53,24,10.57,19.41,9.95Z"/></g></svg>