<svg id="Layer_1" data-name="Layer 1" xmlns="http://www.w3.org/2000/svg" xmlns:xlink="http://www.w3.org/1999/xlink" viewBox="0 0 100 100"><defs><style>.cls-1{fill:url(#linear-gradient);}.cls-2{fill:url(#linear-gradient-2);}.cls-3{fill:#14559a;}.cls-4{fill:url(#linear-gradient-3);}.cls-5{fill:#3092c4;}.cls-6{fill:#1969bc;}.cls-7{fill:url(#linear-gradient-4);}.cls-8{fill:url(#linear-gradient-5);}.cls-9{fill:url(#linear-gradient-6);}.cls-10{fill:#2b74b1;}.cls-11{fill:#125a9e;}.cls-12{fill:url(#linear-gradient-7);}.cls-13{fill:url(#linear-gradient-8);}.cls-14{fill:#0d82ca;}.cls-15{fill:url(#linear-gradient-9);}.cls-16{fill:#127bca;}.cls-17{fill:url(#linear-gradient-10);}.cls-18{fill:url(#linear-gradient-11);}.cls-19{fill:#05a1e6;}.cls-20{fill:url(#linear-gradient-12);}.cls-21{fill:url(#linear-gradient-13);}.cls-22{fill:url(#linear-gradient-14);}.cls-23{fill:#079ae1;}.cls-24{fill:#1e5cb3;}.cls-25{fill:#1d60b5;}.cls-26{fill:#175fab;}.cls-27{fill:url(#linear-gradient-15);}.cls-28{fill:#7dcbec;}.cls-29{fill:#5ec5ed;}.cls-30{fill:url(#linear-gradient-16);}.cls-31{fill:url(#linear-gradient-17);}.cls-32{fill:url(#linear-gradient-18);}</style><linearGradient id="linear-gradient" x1="-821.58" y1="101.22" x2="-821.58" y2="100.72" gradientTransform="matrix(45.61, 0, 0, -81.34, 37515.1, 8233.21)" gradientUnits="userSpaceOnUse"><stop offset="0" stop-color="#0994dc"/><stop offset="0.35" stop-color="#66cef5"/><stop offset="0.85" stop-color="#127bca"/><stop offset="1" stop-color="#127bca"/></linearGradient><linearGradient id="linear-gradient-2" x1="-822.45" y1="101.19" x2="-822.45" y2="100.7" gradientTransform="matrix(47.87, 0, 0, -83.41, 39416.03, 8439.95)" gradientUnits="userSpaceOnUse"><stop offset="0" stop-color="#0e76bc"/><stop offset="0.36" stop-color="#36aee8"/><stop offset="0.85" stop-color="#00adef"/><stop offset="1" stop-color="#00adef"/></linearGradient><linearGradient id="linear-gradient-3" x1="-821.96" y1="100.66" x2="-821.96" y2="101.05" gradientTransform="matrix(45.45, 0, 0, -84.5, 37414.44, 8537.69)" gradientUnits="userSpaceOnUse"><stop offset="0" stop-color="#1c63b7"/><stop offset="0.5" stop-color="#33bdf2"/><stop offset="1" stop-color="#33bdf2" stop-opacity="0.42"/></linearGradient><linearGradient id="linear-gradient-4" x1="-821.7" y1="101.1" x2="-821.7" y2="100.6" gradientTransform="matrix(45.01, 0, 0, -86.6, 37037.57, 8750.15)" gradientUnits="userSpaceOnUse"><stop offset="0" stop-color="#166ab8"/><stop offset="0.4" stop-color="#36aee8"/><stop offset="0.85" stop-color="#0798dd"/><stop offset="1" stop-color="#0798dd"/></linearGradient><linearGradient id="linear-gradient-5" x1="-825.42" y1="101.11" x2="-825.42" y2="100.61" gradientTransform="matrix(58.35, 0, 0, -92.08, 48213.29, 9305.79)" gradientUnits="userSpaceOnUse"><stop offset="0" stop-color="#124379"/><stop offset="0.39" stop-color="#1487cb"/><stop offset="0.78" stop-color="#165197"/><stop offset="1" stop-color="#165197"/></linearGradient><linearGradient id="linear-gradient-6" x1="-797.82" y1="101.15" x2="-797.48" y2="101.15" gradientTransform="matrix(19.42, 0, 0, -30.92, 15522.26, 3137.31)" gradientUnits="userSpaceOnUse"><stop offset="0" stop-color="#33bdf2" stop-opacity="0.7"/><stop offset="1" stop-color="#1dacd8"/></linearGradient><linearGradient id="linear-gradient-7" x1="-829.62" y1="100.69" x2="-829.62" y2="101.02" gradientTransform="matrix(79.14, 0, 0, -98.68, 65737.69, 9967.55)" gradientUnits="userSpaceOnUse"><stop offset="0" stop-color="#136ab4"/><stop offset="0.6" stop-color="#59caf5" stop-opacity="0.55"/><stop offset="1" stop-color="#59caf5" stop-opacity="0.24"/></linearGradient><linearGradient id="linear-gradient-8" x1="-827.26" y1="100.86" x2="-826.93" y2="100.86" gradientTransform="matrix(72.02, 0, 0, -99.16, 59588.93, 10018.41)" gradientUnits="userSpaceOnUse"><stop offset="0" stop-color="#05a1e6" stop-opacity="0.25"/><stop offset="1" stop-color="#05a1e6"/></linearGradient><linearGradient id="linear-gradient-9" x1="-821.8" y1="100.64" x2="-821.8" y2="101.08" gradientTransform="matrix(49.05, 0, 0, -73.82, 40331.23, 7461.14)" gradientUnits="userSpaceOnUse"><stop offset="0" stop-color="#318ed5"/><stop offset="1" stop-color="#38a7e4"/></linearGradient><linearGradient id="linear-gradient-10" x1="-820.63" y1="101.23" x2="-820.63" y2="101.79" gradientTransform="matrix(45.6, 0, 0, -57.13, 37446.7, 5815.07)" gradientUnits="userSpaceOnUse"><stop offset="0" stop-color="#05a1e6"/><stop offset="1" stop-color="#05a1e6" stop-opacity="0.55"/></linearGradient><linearGradient id="linear-gradient-11" x1="-823.05" y1="100.84" x2="-823.05" y2="101.18" gradientTransform="matrix(52.52, 0, 0, -81.09, 43250.53, 8211.46)" gradientUnits="userSpaceOnUse"><stop offset="0" stop-color="#1959a6"/><stop offset="0.5" stop-color="#05a1e6"/><stop offset="0.92" stop-color="#7ec5ea"/><stop offset="1" stop-color="#7ec5ea"/></linearGradient><linearGradient id="linear-gradient-12" x1="-827.27" y1="100.71" x2="-827.34" y2="101.01" gradientTransform="matrix(72.68, 0, 0, -99, 60148.74, 10002.77)" gradientUnits="userSpaceOnUse"><stop offset="0" stop-color="#165096"/><stop offset="1" stop-color="#0d82ca"/></linearGradient><linearGradient id="linear-gradient-13" x1="-816.72" y1="100.79" x2="-816.72" y2="101.05" gradientTransform="matrix(32.77, 0, 0, -57.23, 26834.75, 5782.98)" gradientUnits="userSpaceOnUse"><stop offset="0" stop-color="#05a1e6"/><stop offset="0.87" stop-color="#0495d6"/><stop offset="1" stop-color="#0495d6"/></linearGradient><linearGradient id="linear-gradient-14" x1="-826.75" y1="101.02" x2="-826.85" y2="100.66" gradientTransform="matrix(60.27, 0, 0, -96.32, 49908.28, 9729.64)" gradientUnits="userSpaceOnUse"><stop offset="0" stop-color="#38a7e4" stop-opacity="0.33"/><stop offset="0.96" stop-color="#0e88d3"/><stop offset="1" stop-color="#0e88d3"/></linearGradient><linearGradient id="linear-gradient-15" x1="-828.39" y1="101.01" x2="-828.39" y2="100.67" gradientTransform="matrix(70.28, 0, 0, -98.11, 58296.16, 9910.17)" gradientUnits="userSpaceOnUse"><stop offset="0" stop-color="#168cd4"/><stop offset="0.5" stop-color="#1c87cc"/><stop offset="1" stop-color="#154b8d"/></linearGradient><linearGradient id="linear-gradient-16" x1="-814.33" y1="99.08" x2="-814.09" y2="99.83" gradientTransform="translate(26465.29 -421.77) scale(32.46 4.25)" gradientUnits="userSpaceOnUse"><stop offset="0" stop-color="#97d6ee"/><stop offset="0.7" stop-color="#55c1ea"/><stop offset="1" stop-color="#55c1ea"/></linearGradient><linearGradient id="linear-gradient-17" x1="-809.22" y1="99.99" x2="-808.99" y2="99.62" gradientTransform="translate(21458.94 -745.26) scale(26.47 7.48)" gradientUnits="userSpaceOnUse"><stop offset="0" stop-color="#7accec"/><stop offset="1" stop-color="#3fb7ed"/></linearGradient><linearGradient id="linear-gradient-18" x1="-824.68" y1="100.99" x2="-824.68" y2="100.59" gradientTransform="matrix(52.04, 0, 0, -80.64, 42991.16, 8145.32)" gradientUnits="userSpaceOnUse"><stop offset="0" stop-color="#1da7e7"/><stop offset="1" stop-color="#37abe7" stop-opacity="0"/></linearGradient></defs><title>dotnet_logo</title><path d="M78.8,42.76a.38.38,0,0,0-.12-.31.75.75,0,0,0-.46-.11h-.31v.85h.37c.35,0,.52-.14.52-.43Zm.48,1.78h-.43l-.27-.6c-.14-.3-.29-.45-.45-.45h-.23v1.05h-.35V42h.7a1,1,0,0,1,.71.21.6.6,0,0,1,.2.47.61.61,0,0,1-.17.44.84.84,0,0,1-.47.25h0c.14,0,.28.19.41.46l.33.67Zm.78-1.23a1.67,1.67,0,0,0-.5-1.24,1.75,1.75,0,1,0-1.23,3,1.72,1.72,0,0,0,1.73-1.74Zm.24,0a1.86,1.86,0,0,1-.57,1.39,2.06,2.06,0,0,1-2.81,0,2,2,0,0,1,0-2.78,2,2,0,0,1,2.79,0,1.85,1.85,0,0,1,.58,1.4Z"/><path d="M26.87,50.27H25.66V43.33c0-.55,0-1.21.1-2h0a6.56,6.56,0,0,1-.31,1L21.9,50.27h-.59l-3.53-7.88a5.76,5.76,0,0,1-.31-1.06h0c0,.41.06,1.08.06,2v6.92H16.34V39.94h1.6l3.17,7.2a9.31,9.31,0,0,1,.47,1.24h.05c.21-.56.37-1,.49-1.27l3.24-7.17h1.52V50.27Z"/><path d="M30.6,50.27H29.42V42.89H30.6v7.37Zm.2-10a.74.74,0,0,1-.23.55A.75.75,0,0,1,30,41a.76.76,0,0,1-.54-.22.78.78,0,0,1,0-1.1.79.79,0,0,1,1.09,0,.73.73,0,0,1,.23.54Z"/><path d="M38,49.93a3.79,3.79,0,0,1-2,.52,3.32,3.32,0,0,1-2.56-1.05,3.72,3.72,0,0,1-.95-2.63,4.11,4.11,0,0,1,1-2.93,3.63,3.63,0,0,1,2.8-1.12,3.76,3.76,0,0,1,1.71.37V44.3a3,3,0,0,0-1.76-.58,2.36,2.36,0,0,0-1.84.79,3,3,0,0,0-.74,2.14,2.92,2.92,0,0,0,.68,2,2.35,2.35,0,0,0,1.82.75A3,3,0,0,0,38,48.81v1.12Z"/><path d="M43.59,44.09a1.58,1.58,0,0,0-2.11.41,3.23,3.23,0,0,0-.55,2v3.76H39.74V42.89h1.18v1.52h0a2.59,2.59,0,0,1,.8-1.25,1.77,1.77,0,0,1,1.13-.4,1.91,1.91,0,0,1,.71.1v1.22Z"/><path d="M50.17,46.59a3.22,3.22,0,0,0-.64-2.16,2.18,2.18,0,0,0-1.74-.71,2.27,2.27,0,0,0-1.76.72,3.13,3.13,0,0,0-.7,2.18A3,3,0,0,0,46,48.69a2.28,2.28,0,0,0,1.79.75,2.16,2.16,0,0,0,1.78-.76,3.23,3.23,0,0,0,.6-2.09m1.21,0a4,4,0,0,1-1,2.83,3.49,3.49,0,0,1-2.68,1.07,3.39,3.39,0,0,1-2.63-1.07,3.84,3.84,0,0,1-1-2.71,4,4,0,0,1,1.08-3,3.66,3.66,0,0,1,2.68-1,3.31,3.31,0,0,1,2.58,1,4.07,4.07,0,0,1,.92,2.82"/><path d="M57.23,48.29a1.92,1.92,0,0,1-.68,1.5,3,3,0,0,1-2,.65A3.62,3.62,0,0,1,52.7,50V48.73a3,3,0,0,0,1.92.71q1.4,0,1.4-1a.91.91,0,0,0-.31-.71A4.91,4.91,0,0,0,54.5,47a3.88,3.88,0,0,1-1.32-.84,2,2,0,0,1,.26-2.86,2.81,2.81,0,0,1,1.87-.61,3.5,3.5,0,0,1,1.58.35v1.19a2.78,2.78,0,0,0-1.67-.53,1.45,1.45,0,0,0-.94.29.92.92,0,0,0-.36.74,1,1,0,0,0,.3.76,4.1,4.1,0,0,0,1.11.61,4.26,4.26,0,0,1,1.36.82,1.82,1.82,0,0,1,.54,1.35"/><path d="M64.44,46.59a3.22,3.22,0,0,0-.64-2.16,2.18,2.18,0,0,0-1.73-.71,2.28,2.28,0,0,0-1.76.72,3.14,3.14,0,0,0-.7,2.18,3,3,0,0,0,.66,2.07,2.3,2.3,0,0,0,1.8.75,2.15,2.15,0,0,0,1.78-.76,3.24,3.24,0,0,0,.6-2.09m1.21,0a4,4,0,0,1-1,2.83A3.48,3.48,0,0,1,62,50.44a3.39,3.39,0,0,1-2.63-1.07,3.84,3.84,0,0,1-1-2.71,4,4,0,0,1,1.08-3,3.67,3.67,0,0,1,2.68-1,3.31,3.31,0,0,1,2.57,1,4.06,4.06,0,0,1,.93,2.82"/><path d="M70.86,40.39a1.58,1.58,0,0,0-.78-.19c-.83,0-1.24.52-1.24,1.56v1.14h1.73v1H68.84v6.37H67.65V43.89H66.4v-1h1.25V41.7a2.44,2.44,0,0,1,.75-1.91,2.26,2.26,0,0,1,1.59-.6,2.31,2.31,0,0,1,.86.13v1.07Z"/><path d="M75.51,50.19a2.23,2.23,0,0,1-1.11.24q-1.93,0-1.93-2.18V43.89H71.21v-1h1.26v-1.8l1.18-.38v2.18h1.86v1H73.66v4.16a1.69,1.69,0,0,0,.25,1.05,1,1,0,0,0,.84.32,1.25,1.25,0,0,0,.76-.24v1Z"/><path d="M11.71,79a2.14,2.14,0,0,1-2.13,2.13,2,2,0,0,1-1.47-.63,2.18,2.18,0,0,1,0-3,2,2,0,0,1,1.47-.62,2,2,0,0,1,1.51.63,2.06,2.06,0,0,1,.62,1.5"/><path d="M38.14,80.74H34.29l-14-21.58a9.9,9.9,0,0,1-.85-1.7h-.11a28.11,28.11,0,0,1,.15,3.72V80.74H16.33V53.67h4.12L34,74.91c.54.84.91,1.45,1.1,1.81h.08a28.52,28.52,0,0,1-.19-4V53.67h3.15V80.74Z"/><path d="M58.48,80.74H44.13V53.67H57.86v2.87H47.3v9h9.78v2.87H47.3v9.46H58.48v2.87Z"/><path d="M80.24,56.54h-7.8v24.2H69.27V56.54H61.46V53.67H80.24v2.87Z"/><path class="cls-1" d="M37.06,6.91C40.12,16.27,41.28,33,50.23,33h0a11,11,0,0,0,2.06-.2h0c-8.14-1.9-9.1-18.42-14.07-27h0c-.39.35-.78.72-1.17,1.11"/><path class="cls-2" d="M38.23,5.8c5,8.55,5.93,25.07,14.07,27h0a13,13,0,0,0,1.92-.52h0c-7.3-3.58-9.32-19.62-15-27.34h0q-.51.43-1,.89"/><path class="cls-3" d="M45.38.72a11.06,11.06,0,0,0-2.06.2,15.79,15.79,0,0,0-5.51,2.3,13.67,13.67,0,0,1,1.44,1.7A19.78,19.78,0,0,1,44.88,1.5,12.55,12.55,0,0,1,47,.91a6.47,6.47,0,0,0-1.6-.2"/><path class="cls-4" d="M59.92,29q1.12-.89,2.25-2C59.05,17.67,57.94.73,48.93.73A10.67,10.67,0,0,0,47,.91c8.21,2,9.26,19.91,12.94,28"/><path class="cls-5" d="M47,.91a6.47,6.47,0,0,0-1.6-.2h3.54A10.55,10.55,0,0,0,47,.91"/><path class="cls-6" d="M59.76,30.93a13.34,13.34,0,0,1-1-1.1,18.65,18.65,0,0,1-4.53,2.42,7,7,0,0,0,1.69.58,7.15,7.15,0,0,0,1.44.14,9.43,9.43,0,0,0,4.15-.74,7.88,7.88,0,0,1-1.73-1.29"/><path class="cls-7" d="M44.88,1.5c7.35,3.85,8,21.27,13.86,28.34h0c.39-.28.78-.57,1.17-.88h0C56.24,20.82,55.19,3,47,.91h0a12.71,12.71,0,0,0-2.1.59"/><path class="cls-8" d="M39.25,4.91c5.64,7.72,7.66,23.76,15,27.34h0a18.65,18.65,0,0,0,4.53-2.42h0C52.88,22.76,52.24,5.34,44.88,1.5h0a19.74,19.74,0,0,0-5.63,3.42"/><path class="cls-9" d="M33.45,6.68a84.07,84.07,0,0,0-2.88,8.05,59.91,59.91,0,0,1,6.49-7.83,23.52,23.52,0,0,0-1-2.5,32.32,32.32,0,0,0-2.65,2.27"/><path class="cls-10" d="M36.89,3.83l-.78.58a23.55,23.55,0,0,1,1,2.5c.39-.38.78-.75,1.17-1.11a15.49,15.49,0,0,0-1.34-2"/><path class="cls-11" d="M37.81,3.22c-.31.2-.62.4-.93.62a15.56,15.56,0,0,1,1.34,2c.34-.31.69-.61,1-.89a13.67,13.67,0,0,0-1.44-1.7"/><path class="cls-12" d="M88,0C83.82,16,75.13,28.93,67.85,32.18h0l-.39.17,0,0-.11,0-.05,0-.18.06-.08,0-.09,0-.09,0-.08,0-.16,0-.07,0-.11,0-.07,0-.11,0-.14,0a3,3,0,0,0,1,.18C74,33,81,20.58,92.5,0H88Z"/><path class="cls-13" d="M29.07,1.37h0l.11,0h.05l.12,0h0l.26-.09h0l.11,0,.05,0L30,1h0l.38-.1h.05l.11,0,.05,0,.11,0h0l.23,0h0l.11,0h.06l.1,0h.06l.25,0c-.24,0-.48,0-.73,0C23.1.71,12.39,15.14,7.56,33.83h.93c1.54-2.76,2.93-5.36,4.2-7.81C16.07,12.79,23,3.76,29.08,1.37"/><path class="cls-14" d="M33.45,6.68A32.31,32.31,0,0,1,36.1,4.41a12.51,12.51,0,0,0-.63-1.22,14.94,14.94,0,0,0-2,3.49"/><path class="cls-14" d="M34.09,1.48a6.64,6.64,0,0,1,1.38,1.71c.13-.16.26-.31.4-.45A7.8,7.8,0,0,0,34,1.43l.08,0h0"/><path class="cls-15" d="M12.69,26C19.78,12.36,23.14,3.71,29.07,1.37h0C23,3.76,16.07,12.79,12.69,26"/><path class="cls-16" d="M35.87,2.74c-.14.14-.27.29-.4.45a12.69,12.69,0,0,1,.63,1.22l.78-.58a10.65,10.65,0,0,0-1-1.09"/><path class="cls-17" d="M15.91,33.77h0l-.13,0h-.15l-.26,0h0c7.18-.2,10.46-3.79,12.09-9,1.24-4,2.25-7.28,3.14-10.07a142.74,142.74,0,0,0-9.06,14.93,7.43,7.43,0,0,1-5.6,4.1"/><path class="cls-18" d="M15.91,33.77h0a7.43,7.43,0,0,0,5.6-4.1h0a143.36,143.36,0,0,1,9.06-14.93h0a83.88,83.88,0,0,1,2.88-8.05h0c-6,5.7-12,15.18-17.54,27.08"/><path class="cls-19" d="M12.69,26c-1.27,2.45-2.66,5.05-4.2,7.81h2.71A66.14,66.14,0,0,1,12.69,26"/><path class="cls-20" d="M31.37.78h-.22L31,.83h0l-.23,0h0l-.11,0h0l-.06,0h0l-.11,0h-.05l-.38.1h0l-.11,0h0l-.05,0h0l-.11,0h0l-.26.09h0l-.12,0h0l-.05,0h0l-.11,0h0l0,0h0C23.15,3.71,19.79,12.36,12.7,26h0a65.85,65.85,0,0,0-1.5,7.81h4.17l.26,0h.15l.13,0h0C21.46,21.87,27.47,12.4,33.46,6.7h0a15,15,0,0,1,2-3.49h0A6.61,6.61,0,0,0,34.1,1.49h0s0,0,0,0h0l-.08,0h0l-.08,0h0l-.08,0h0l-.1,0h0l-.08,0h0l-.16-.07h0l-.07,0h0l-.12,0h0l-.06,0h0l-.16-.06h0L32.89,1h0l-.16,0h0L32.26.86h0l-.17,0h0l-.2,0h0l-.16,0h0l-.25,0"/><path class="cls-21" d="M71.73,8.88c-1.36,4.37-2.47,8-3.43,10.94h0A118.84,118.84,0,0,0,79.24.71h0C75.15,2,73,4.95,71.73,8.88"/><path class="cls-22" d="M68.42,31.9l-.57.27C75.13,28.93,83.82,16,88,0h-.84C77.58,17.07,74.5,28.5,68.42,31.9"/><path class="cls-23" d="M63.66,30.47c1.58-1.93,2.88-5.22,4.64-10.64A53.27,53.27,0,0,1,62.17,27s0,0,0,0a18.66,18.66,0,0,0,1.5,3.47"/><path class="cls-6" d="M63.66,30.47A6.49,6.49,0,0,1,61.92,32l-.42.23a6.14,6.14,0,0,0,2.22.7h0l.36,0h1.05l.14,0h.05l.15,0h0l.17,0h0l.34-.07a5,5,0,0,1-2.4-2.31"/><path class="cls-24" d="M50.23,33a10.92,10.92,0,0,0,2.06-.2,12.77,12.77,0,0,0,1.92-.52,7,7,0,0,0,1.69.58,7.17,7.17,0,0,0,1.44.14Z"/><path class="cls-24" d="M57.34,33a9.43,9.43,0,0,0,4.15-.74,6.14,6.14,0,0,0,2.22.7h0l.36,0H57.34Z"/><path class="cls-25" d="M64.48,33h.65l.14,0h.05l.15,0h0l.17,0h0l.34-.07h0a3,3,0,0,0,1,.18H64.48Z"/><path class="cls-26" d="M62.17,27h0Q61,28.06,59.92,29c-.39.31-.78.6-1.17.88a13.33,13.33,0,0,0,1,1.1,7.88,7.88,0,0,0,1.73,1.29l.42-.23a6.48,6.48,0,0,0,1.75-1.53A18.66,18.66,0,0,1,62.17,27"/><path class="cls-27" d="M84.47,0H80.22l-.67,0h0l-.31.67h0A118.83,118.83,0,0,1,68.29,19.82h0c-1.76,5.42-3.05,8.71-4.64,10.64h0a5,5,0,0,0,2.4,2.31h0l.07,0h.07l.12,0h0l.07,0h0l.11,0h0l.07,0h0l.16,0h0l.08,0h0l.09,0h0l.09,0h0l.07,0h0l.18-.06h0l.05,0h0l.11,0h0l0,0h0l.39-.17h0l.57-.27h0C74.5,28.5,77.57,17.08,87.13,0H84.47Z"/><path class="cls-28" d="M31.62.75h.19l.2,0h0l.17,0h0l.39.09h0l.16,0h0l.19.05h0l.16.06.06,0,.12,0,.07,0,.16.07.08,0,.09,0,.08,0,.08,0a7.84,7.84,0,0,1,1.88,1.32,6.1,6.1,0,0,1,.67-.61A7.34,7.34,0,0,0,32.19.75l-.58,0"/><path class="cls-29" d="M35.87,2.74a10.65,10.65,0,0,1,1,1.09c.31-.22.62-.42.93-.62a9.77,9.77,0,0,0-1.27-1.08,6,6,0,0,0-.67.61"/><path class="cls-30" d="M31.62.75l.58,0a7.35,7.35,0,0,1,4.35,1.41A7.87,7.87,0,0,1,41.72.72H30.88c.25,0,.49,0,.73,0"/><path class="cls-31" d="M41.72.72a7.87,7.87,0,0,0-5.18,1.42,9.85,9.85,0,0,1,1.27,1.08A15.8,15.8,0,0,1,43.32.91a11.18,11.18,0,0,1,2.06-.2Z"/><path class="cls-32" d="M68.3,19.83c1-3,2.07-6.57,3.43-10.95C73,4.94,75.15,2,79.24.71L79.56,0c-6.68.4-9.8,3.8-11.37,8.83-2.75,8.78-4.41,14.48-6,18.11a53.42,53.42,0,0,0,6.13-7.15"/><path d="M78.1,30.63h-.76V33H77V30.63h-.76v-.28H78.1v.28Z"/><path d="M81.2,33h-.31V31.22c0-.14,0-.31,0-.51h0a1.8,1.8,0,0,1-.08.26l-.9,2h-.15l-.9-2a1.46,1.46,0,0,1-.08-.27h0c0,.11,0,.28,0,.52V33h-.3V30.35h.41l.81,1.84a2.39,2.39,0,0,1,.12.32h0l.13-.32.82-1.83h.39V33Z"/></svg>