<svg id="Layer_1" data-name="Layer 1" xmlns="http://www.w3.org/2000/svg" viewBox="0 0 100 100"><defs><style>.cls-1{fill:#f6d2a2;}.cls-1,.cls-2,.cls-3,.cls-4,.cls-5{fill-rule:evenodd;}.cls-2{fill:#c6b198;}.cls-3{fill:#6ad7e5;}.cls-5,.cls-6{fill:#fff;}.cls-7{fill:#231f20;}</style></defs><title>go_logo</title><path class="cls-1" d="M19.6,46c.12,2.51,2.63,1.35,3.76.56s1.39-.13,1.49-1.59a24.09,24.09,0,0,0,.12-2.9,7.11,7.11,0,0,0-4.74,1.21c-.69.5-2,2.09-.63,2.72"/><path d="M20.91,47.76a1.6,1.6,0,0,1-.72-.15,1.64,1.64,0,0,1-.82-1.46,1.09,1.09,0,0,1-.59-.86,3.05,3.05,0,0,1,1.31-2.21A7.3,7.3,0,0,1,25,41.82l.21,0V42a17.23,17.23,0,0,1-.07,2.27c0,.22,0,.44,0,.66-.07,1-.26,1.2-.8,1.38a3,3,0,0,0-.79.39A5.43,5.43,0,0,1,20.91,47.76Zm3.37-5.49a6.68,6.68,0,0,0-3.9,1.2c-.49.36-1.17,1.2-1.12,1.77a.67.67,0,0,0,.45.54l.13.06V46c0,.62.22,1,.56,1.2.66.33,1.9-.18,2.83-.82a3.42,3.42,0,0,1,.91-.45c.35-.12.43-.15.48-1,0-.22,0-.44,0-.67a18.66,18.66,0,0,0,.08-2Z"/><path class="cls-2" d="M19.6,46a2,2,0,0,0,1-.56"/><path d="M19.6,46.23a.24.24,0,0,1-.08-.46l.16-.06a1.44,1.44,0,0,0,.73-.42.24.24,0,0,1,.38.29,1.86,1.86,0,0,1-1,.59l-.15.06Z"/><path class="cls-3" d="M25.39,16.12c-9.6-2.7-2.46-14.91,5.25-9.89Z"/><path d="M25.51,16.4l-.19-.05c-2.73-.77-4.42-2.39-4.74-4.56a6.36,6.36,0,0,1,3-6A6.43,6.43,0,0,1,30.77,6l.18.12ZM26.88,5.27a5.62,5.62,0,0,0-3.07.92,5.87,5.87,0,0,0-2.75,5.53c.29,1.92,1.78,3.38,4.21,4.11l5.05-9.52A6.59,6.59,0,0,0,26.88,5.27Z"/><path class="cls-3" d="M68,5.31C75.64,0,82.51,12,73.68,15Z"/><path d="M73.57,15.34,67.73,5.24l.18-.13a6.27,6.27,0,0,1,7-.59,6.44,6.44,0,0,1,3.17,6c-.13,1.28-.85,3.6-4.29,4.78Zm-5.21-10,5.42,9.37c2.25-.83,3.59-2.35,3.78-4.31a6,6,0,0,0-2.94-5.51A5.64,5.64,0,0,0,68.36,5.38Z"/><path class="cls-1" d="M69.68,76.86c1.93,1.19,5.46,4.81,2.56,6.56-2.78,2.55-4.34-2.8-6.78-3.54A6.76,6.76,0,0,1,69.68,76.86Z"/><path d="M70.78,84.33h-.11c-1.1-.07-2-1.14-2.89-2.17a6.2,6.2,0,0,0-2.38-2.06l-.32-.1.2-.27a7.05,7.05,0,0,1,4.37-3.11h.09l.08,0c1.24.76,3.78,3,3.77,5a2.22,2.22,0,0,1-1.19,1.93A2.4,2.4,0,0,1,70.78,84.33Zm-4.93-4.57a7.61,7.61,0,0,1,2.3,2.08c.85,1,1.66,1.95,2.55,2a1.9,1.9,0,0,0,1.39-.62l0,0a1.75,1.75,0,0,0,1-1.54c0-1.61-2-3.65-3.47-4.56A6.24,6.24,0,0,0,65.84,79.77Z"/><path d="M72.24,83.65a.24.24,0,0,1-.21-.13,8.86,8.86,0,0,1-.37-.9A4,4,0,0,0,70.79,81a.24.24,0,1,1,.33-.34,4.39,4.39,0,0,1,1,1.75,8.52,8.52,0,0,0,.35.85.24.24,0,0,1-.11.32Z"/><path class="cls-1" d="M35.2,80.94c-2.27.35-3.54,2.39-5.43,3.43s-2.46-.34-2.62-.62c-.28-.13-.26.12-.69-.32-1.65-2.6,1.72-4.51,3.47-5.8C32.38,77.14,33.91,79.25,35.2,80.94Z"/><path d="M28.56,85a1.63,1.63,0,0,1-.43-.06,2,2,0,0,1-1.15-1h0c-.2,0-.35,0-.65-.34l0,0c-1.59-2.51,1.12-4.41,2.9-5.67l.63-.45,0,0h.05C32.4,76.89,34,79,35.27,80.64l.36.47-.4.06a6.87,6.87,0,0,0-3.36,1.92,12.22,12.22,0,0,1-2,1.48A2.61,2.61,0,0,1,28.56,85ZM27,83.46a.65.65,0,0,1,.28.06l.07,0,.06.11a1.55,1.55,0,0,0,.89.82,1.82,1.82,0,0,0,1.38-.32,11.86,11.86,0,0,0,1.92-1.43,8,8,0,0,1,3.21-2c-1.22-1.6-2.62-3.32-4.74-2.92l-.59.42c-1.83,1.29-4.11,2.89-2.79,5,.19.19.23.19.27.18Z"/><path d="M27.15,84h0a.24.24,0,0,1-.22-.26A3.64,3.64,0,0,1,27.68,82a5.62,5.62,0,0,0,.5-.84.24.24,0,0,1,.44.19,6,6,0,0,1-.54.91,3.23,3.23,0,0,0-.69,1.51A.24.24,0,0,1,27.15,84Z"/><path class="cls-4" d="M25.79,12.74c-1.27-.67-2.2-1.58-1.42-3s2-1.21,3.32-.54Z"/><path class="cls-4" d="M71.68,11.47c1.27-.67,2.2-1.58,1.42-3s-2-1.21-3.32-.54Z"/><path class="cls-1" d="M80.4,45.67c-.12,2.51-2.63,1.35-3.76.56s-1.39-.13-1.49-1.59a24.09,24.09,0,0,1-.12-2.9A7.11,7.11,0,0,1,79.77,43c.69.5,2,2.09.63,2.72"/><path d="M79.09,47.44a5.43,5.43,0,0,1-2.59-1,3,3,0,0,0-.79-.39c-.54-.19-.73-.34-.8-1.38,0-.22,0-.44,0-.66a17.23,17.23,0,0,1-.07-2.27v-.21l.21,0a7.3,7.3,0,0,1,4.9,1.25A3.05,3.05,0,0,1,81.22,45a1.09,1.09,0,0,1-.59.86,1.64,1.64,0,0,1-.82,1.46A1.6,1.6,0,0,1,79.09,47.44ZM75.26,42a18.66,18.66,0,0,0,.08,2c0,.22,0,.44,0,.67.05.82.13.84.48,1a3.42,3.42,0,0,1,.91.45c.93.64,2.16,1.14,2.83.82.34-.17.53-.57.56-1.2v-.14l.13-.06a.67.67,0,0,0,.45-.54c.06-.58-.63-1.42-1.12-1.77A6.78,6.78,0,0,0,75.26,42Z"/><path class="cls-2" d="M80.4,45.67a2,2,0,0,1-1-.56"/><path d="M80.4,45.91l-.08,0-.15-.06a1.86,1.86,0,0,1-1-.59.24.24,0,1,1,.38-.29,1.44,1.44,0,0,0,.73.42l.16.06a.24.24,0,0,1-.08.46Z"/><path class="cls-3" d="M49,.24c9.61,0,18.62,1.37,23.32,10.61,4.22,10.35,2.72,21.51,3.36,32.45.55,9.39,1.78,20.24-2.58,28.95-4.58,9.16-16,11.46-25.47,11.12-7.41-.27-16.37-2.68-20.55-9.46C22.2,66,24.53,54.15,24.88,45.31c.42-10.47-2.84-21,.6-31.22C29.05,3.46,38.68,1.06,49,.24"/><path d="M49.3,83.63c-.6,0-1.15,0-1.65,0a35.05,35.05,0,0,1-11.57-2.3A18.5,18.5,0,0,1,26.91,74c-4-6.42-3.26-15.3-2.64-23.14.16-2,.3-3.83.38-5.6a90.08,90.08,0,0,0-.48-11.13C23.6,27.53,23,20.67,25.26,14A17.64,17.64,0,0,1,34.61,3.27C38.2,1.51,42.64.51,49,0h0c9.38,0,18.73,1.3,23.53,10.74v0c3.08,7.57,3.13,15.7,3.17,23.56,0,2.94,0,6,.21,9,.05.9.11,1.82.17,2.74.56,8.63,1.19,18.4-2.78,26.33C68.4,82.24,55.91,83.63,49.3,83.63ZM49,.48c-10,.79-19.75,3-23.34,13.69-2.2,6.56-1.63,13.38-1.07,20a90.43,90.43,0,0,1,.48,11.19c-.07,1.77-.22,3.64-.38,5.61-.62,7.76-1.32,16.56,2.57,22.85,1.64,2.65,6.89,8.86,20.36,9.34,5.83.21,20-.44,25.25-11,3.91-7.81,3.28-17.52,2.73-26.08-.06-.93-.12-1.84-.17-2.74-.18-3-.19-6-.21-9,0-7.81-.09-15.89-3.13-23.38A17.1,17.1,0,0,0,62.46,2.3C58.09.69,53,.48,49,.48Z"/><path class="cls-5" d="M50.73,13.14c1.73,10,18.12,7.38,15.77-2.74-2.11-9.07-16.34-6.56-15.77,2.74"/><path d="M58.53,19.69a9.18,9.18,0,0,1-3-.49,7.42,7.42,0,0,1-5-6v0a7.65,7.65,0,0,1,2.08-5.9,9,9,0,0,1,5.26-2.65,8.5,8.5,0,0,1,5.46.95,7.24,7.24,0,0,1,3.43,4.79,7,7,0,0,1-2,7.11A9.32,9.32,0,0,1,58.53,19.69ZM51,13.11a7,7,0,0,0,4.71,5.65,9.07,9.07,0,0,0,8.7-1.64,6.57,6.57,0,0,0,1.9-6.66c-1-4.42-4.94-5.89-8.37-5.39S50.68,8.33,51,13.11Z"/><path class="cls-5" d="M31.14,14.76c2.24,8.73,16.22,6.5,15.69-2.26C46.2,2,29,4,31.14,14.76"/><path d="M38.6,20.52a8.58,8.58,0,0,1-4.08-1,7.24,7.24,0,0,1-3.6-4.72h0a7.32,7.32,0,0,1,2.51-7.5,9.43,9.43,0,0,1,9.37-1.2,7.09,7.09,0,0,1,4.26,6.38c.28,4.65-3.41,7.36-7,7.92A9.72,9.72,0,0,1,38.6,20.52Zm-7.24-5.81c.81,3.16,3.81,6,8.67,5.25,3.35-.52,6.84-3.08,6.57-7.45a6.66,6.66,0,0,0-4-6,9,9,0,0,0-8.91,1.14A6.89,6.89,0,0,0,31.36,14.71Z"/><path class="cls-5" d="M52.71,25.18a22.62,22.62,0,0,1,0,4.16c-.33.63-1,.7-1.55,1a2.28,2.28,0,0,1-1.75-1.36,29.51,29.51,0,0,1,.12-4.7Z"/><path d="M51.25,30.53h-.07A2.51,2.51,0,0,1,49.25,29V29a15.78,15.78,0,0,1,0-3.23c0-.49.08-1,.09-1.51V23.9L53,25v.18c0,.43,0,.88.07,1.35a11.37,11.37,0,0,1,0,2.85v0l0,0a2,2,0,0,1-1.26.9l-.41.16ZM49.7,28.86A2,2,0,0,0,51.18,30l.37-.14a1.59,1.59,0,0,0,1-.64,11.18,11.18,0,0,0,0-2.69c0-.42-.06-.81-.07-1.21l-2.66-.82c0,.41-.05.82-.08,1.22A15.33,15.33,0,0,0,49.7,28.86Z"/><ellipse cx="35" cy="13.34" rx="2.36" ry="2.56"/><ellipse class="cls-6" cx="36.07" cy="13.92" rx="0.56" ry="0.65"/><ellipse cx="54.78" cy="12.7" rx="2.32" ry="2.56"/><ellipse class="cls-6" cx="55.84" cy="13.28" rx="0.55" ry="0.65"/><path class="cls-5" d="M46,25c-1,2.5.57,7.49,3.37,3.81a29.51,29.51,0,0,1,.12-4.7Z"/><path d="M47.47,30.4a1.37,1.37,0,0,1-.69-.19c-1.13-.65-1.84-3.32-1-5.26l0-.11,3.92-1v.32c0,.52-.06,1-.1,1.53a15.18,15.18,0,0,0,0,3.13v.1l-.06.08C48.71,30.07,48,30.4,47.47,30.4Zm-1.32-5.16c-.58,1.56-.12,4,.87,4.56.72.41,1.51-.31,2.07-1a16.24,16.24,0,0,1,0-3.13c0-.39.06-.79.08-1.19Z"/><path class="cls-1" d="M46.32,20.23c-1.92.16-3.49,2.45-2.49,4.25,1.32,2.39,4.27-.21,6.11,0,2.12,0,3.85,2.24,5.55.4,1.89-2-.81-4-2.93-4.93Z"/><path class="cls-7" d="M54,25.88A5.24,5.24,0,0,1,52,25.34a5.85,5.85,0,0,0-2.09-.59h0a5.31,5.31,0,0,0-2.16.46c-1.49.52-3.18,1.1-4.13-.61a2.87,2.87,0,0,1,0-2.78A3.4,3.4,0,0,1,46.3,20h0l6.29-.25,0,0c1.57.66,3.36,1.87,3.66,3.29A2.54,2.54,0,0,1,54,25.88Zm-4-1.61a6.24,6.24,0,0,1,2.25.62c1.19.5,2.13.89,3.1-.15a1.76,1.76,0,0,0,.54-1.6c-.26-1.22-1.95-2.33-3.33-2.93l-6.18.25A3,3,0,0,0,44.08,22a2.4,2.4,0,0,0,0,2.33c.75,1.36,2.11.89,3.55.39A5.64,5.64,0,0,1,50,24.27Z"/><path class="cls-4" d="M46.08,20.13c-.14-3.33,6.2-3.74,6.95-1s-6.64,3.42-6.95,1Z"/></svg>