<svg id="Layer_1" data-name="Layer 1" xmlns="http://www.w3.org/2000/svg" viewBox="0 0 100 100"><title>ios_logo</title><path d="M7,3.92A3.88,3.88,0,0,1,10.92,0H11a3.88,3.88,0,0,1,4,3.84,3.88,3.88,0,0,1-3.84,4H11A3.85,3.85,0,0,1,7,3.92Zm.47,7.92H14.6V43H7.47Z"/><path d="M58.27,22.42c0,13.09-7.53,21.25-19.52,21.25S19.23,35.52,19.23,22.42,26.76,1.18,38.75,1.18,58.27,9.33,58.27,22.42Zm-31.52,0c0,9.17,4.63,15,12,15s12-5.8,12-15-4.7-15-12-15S26.76,13.25,26.76,22.42Z"/><path d="M68.07,31.44c.47,3.76,4.23,6.27,9.25,6.27s8.39-2.43,8.39-5.88c0-3-2.12-4.7-7.29-5.88L73.09,24.7C65.48,23,61.88,19.29,61.88,13.41c0-7.29,6.35-12.23,15.29-12.23,9.09,0,15.05,4.94,15.21,12.15H85.32C85,9.49,81.79,7.14,77,7.14c-4.63,0-7.76,2.27-7.76,5.72,0,2.74,2.12,4.31,7.13,5.57l4.7,1.1C89.47,21.4,93,24.85,93,31c0,7.84-6.27,12.7-16.23,12.7-9.49,0-15.68-4.7-16-12.23l7.29-.08Z"/></svg>