<svg id="Layer_1" data-name="Layer 1" xmlns="http://www.w3.org/2000/svg" viewBox="0 0 100 100"><defs><style>.cls-1{fill:#e9232e;}.cls-2,.cls-4{fill:none;stroke-miterlimit:10;stroke-width:0.09px;}.cls-2{stroke:#e9232e;}.cls-3{fill:#3471c0;}.cls-4{stroke:#3471c0;}</style></defs><title>java_logo</title><g id="g10"><path id="path156" class="cls-1" d="M56.8,0a7.1,7.1,0,0,1,1.47,6A13.53,13.53,0,0,1,55,12.15,30,30,0,0,1,51,16a16.94,16.94,0,0,0-4.43,4.77A6.22,6.22,0,0,0,46,26c1,2.92,3.35,5.08,4.63,7.83-1.41-1.25-2.8-2.54-4.09-3.91a18.72,18.72,0,0,1-3.47-4.78A5.72,5.72,0,0,1,42.7,21a9.4,9.4,0,0,1,2.39-3.49c2.72-2.72,6.07-4.72,8.73-7.49a11.12,11.12,0,0,0,3.11-5.43A10.94,10.94,0,0,0,56.8,0"/><path id="path158" class="cls-2" d="M56.8,0a7.1,7.1,0,0,1,1.47,6A13.53,13.53,0,0,1,55,12.15,30,30,0,0,1,51,16a16.94,16.94,0,0,0-4.43,4.77A6.22,6.22,0,0,0,46,26c1,2.92,3.35,5.08,4.63,7.83-1.41-1.25-2.8-2.54-4.09-3.91a18.72,18.72,0,0,1-3.47-4.78A5.72,5.72,0,0,1,42.7,21a9.4,9.4,0,0,1,2.39-3.49c2.72-2.72,6.07-4.72,8.73-7.49a11.12,11.12,0,0,0,3.11-5.43A10.94,10.94,0,0,0,56.8,0Z"/><path id="path160" class="cls-1" d="M54.58,17.12a30.52,30.52,0,0,1,9.79-4.51,50.71,50.71,0,0,0-8,5.58,7.4,7.4,0,0,0-2,2.93,3.73,3.73,0,0,0,.18,2.62,33.61,33.61,0,0,0,2.51,3.94,4.17,4.17,0,0,1,.29,3.79,10,10,0,0,1-4,4.13c-.21.12-.39.35-.65.38a5.24,5.24,0,0,0,1.89-3.85,4.62,4.62,0,0,0-1.37-2.89c-1.49-1.77-2.74-4-2.48-6.42s2-4.31,3.82-5.7"/><path id="path162" class="cls-2" d="M54.58,17.12a30.52,30.52,0,0,1,9.79-4.51,50.71,50.71,0,0,0-8,5.58,7.4,7.4,0,0,0-2,2.93,3.73,3.73,0,0,0,.18,2.62,33.61,33.61,0,0,0,2.51,3.94,4.17,4.17,0,0,1,.29,3.79,10,10,0,0,1-4,4.13c-.21.12-.39.35-.65.38a5.24,5.24,0,0,0,1.89-3.85,4.62,4.62,0,0,0-1.37-2.89c-1.49-1.77-2.74-4-2.48-6.42s2-4.31,3.82-5.7Z"/><path id="path164" class="cls-3" d="M64.92,34.5a3.76,3.76,0,0,1,2.55-1.08A5.6,5.6,0,0,1,72,34.71a4.08,4.08,0,0,1,1.34,3.61,6.39,6.39,0,0,1-2.43,3.82,19.15,19.15,0,0,1-7.35,3.35,2.39,2.39,0,0,1,.51-.44A18,18,0,0,0,69.45,41a4.89,4.89,0,0,0,1.29-3.92,3.83,3.83,0,0,0-3.55-2.95,7.8,7.8,0,0,0-2.27.38"/><path id="path166" class="cls-4" d="M64.92,34.5a3.76,3.76,0,0,1,2.55-1.08A5.6,5.6,0,0,1,72,34.71a4.08,4.08,0,0,1,1.34,3.61,6.39,6.39,0,0,1-2.43,3.82,19.15,19.15,0,0,1-7.35,3.35,2.39,2.39,0,0,1,.51-.44A18,18,0,0,0,69.45,41a4.89,4.89,0,0,0,1.29-3.92,3.83,3.83,0,0,0-3.55-2.95,7.8,7.8,0,0,0-2.27.38Z"/><path id="path168" class="cls-3" d="M34.7,35.87A21.69,21.69,0,0,1,43.5,34a34.75,34.75,0,0,0-5.22,1.73,2.39,2.39,0,0,0-1.07.81c-.12.32.21.53.45.63a11.25,11.25,0,0,0,3.25.59,89.61,89.61,0,0,0,11.55-.14c3.79-.24,7.55-.75,11.29-1.35a20.91,20.91,0,0,0-2.43,1.28A3.76,3.76,0,0,1,60,38a69.64,69.64,0,0,1-14,1.41c-1.82,0-3.62,0-5.43-.14a31.25,31.25,0,0,1-6-.81,4,4,0,0,1-1.62-.75.53.53,0,0,1,0-.75,6,6,0,0,1,1.8-1.05"/><path id="path170" class="cls-4" d="M34.7,35.87A21.69,21.69,0,0,1,43.5,34a34.75,34.75,0,0,0-5.22,1.73,2.39,2.39,0,0,0-1.07.81c-.12.32.21.53.45.63a11.25,11.25,0,0,0,3.25.59,89.61,89.61,0,0,0,11.55-.14c3.79-.24,7.55-.75,11.29-1.35a20.91,20.91,0,0,0-2.43,1.28A3.76,3.76,0,0,1,60,38a69.64,69.64,0,0,1-14,1.41c-1.82,0-3.62,0-5.43-.14a31.25,31.25,0,0,1-6-.81,4,4,0,0,1-1.62-.75.53.53,0,0,1,0-.75,6,6,0,0,1,1.8-1.05Z"/><path id="path172" class="cls-3" d="M38.25,42.29A9,9,0,0,1,40.9,41c-.3.36-.72.71-.75,1.2a.85.85,0,0,0,.5.71,4.88,4.88,0,0,0,1.61.42,51.12,51.12,0,0,0,8.72.27,64.45,64.45,0,0,0,7.94-1,8.82,8.82,0,0,0,2.48,1.55,47.54,47.54,0,0,1-9.71,1.73,41.12,41.12,0,0,1-9.32-.3,12.88,12.88,0,0,1-3.58-1.05,1.94,1.94,0,0,1-1.1-1.08,1.21,1.21,0,0,1,.57-1.11"/><path id="path174" class="cls-4" d="M38.25,42.29A9,9,0,0,1,40.9,41c-.3.36-.72.71-.75,1.2a.85.85,0,0,0,.5.71,4.88,4.88,0,0,0,1.61.42,51.12,51.12,0,0,0,8.72.27,64.45,64.45,0,0,0,7.94-1,8.82,8.82,0,0,0,2.48,1.55,47.54,47.54,0,0,1-9.71,1.73,41.12,41.12,0,0,1-9.32-.3,12.88,12.88,0,0,1-3.58-1.05,1.94,1.94,0,0,1-1.1-1.08,1.21,1.21,0,0,1,.57-1.11Z"/><path id="path176" class="cls-3" d="M40,48.84a6.62,6.62,0,0,1,2.39-1.08c-.27.26-.75.57-.54,1,.41.53,1.16.59,1.76.72a38.41,38.41,0,0,0,7.65.33A51.29,51.29,0,0,0,57,49a27.93,27.93,0,0,0,3.37,1.65,25,25,0,0,1-5.59,1.67,29.62,29.62,0,0,1-9.77.14,13.62,13.62,0,0,1-4.18-1.29A2.53,2.53,0,0,1,39.55,50,1.08,1.08,0,0,1,40,48.84"/><path id="path178" class="cls-4" d="M40,48.84a6.62,6.62,0,0,1,2.39-1.08c-.27.26-.75.57-.54,1,.41.53,1.16.59,1.76.72a38.41,38.41,0,0,0,7.65.33A51.29,51.29,0,0,0,57,49a27.93,27.93,0,0,0,3.37,1.65,25,25,0,0,1-5.59,1.67,29.62,29.62,0,0,1-9.77.14,13.62,13.62,0,0,1-4.18-1.29A2.53,2.53,0,0,1,39.55,50,1.08,1.08,0,0,1,40,48.84Z"/><path id="path180" class="cls-3" d="M31.65,53.09a14.91,14.91,0,0,1,4.27-.89,3.13,3.13,0,0,1,1.7.32,12.87,12.87,0,0,0-5.05,1.34,1.67,1.67,0,0,0-.87.83c0,.47.53.62.87.77a27.6,27.6,0,0,0,6.8,1.31,117.88,117.88,0,0,0,20.47-.2,47,47,0,0,0,7.65-1.28A4.33,4.33,0,0,0,69.72,54a1,1,0,0,0-.21-1.31c.51.29,1.23.65,1.13,1.34s-.93,1.1-1.53,1.44A24.3,24.3,0,0,1,63,57.42a83.9,83.9,0,0,1-18.61,1.29,104.51,104.51,0,0,1-14-1.41,4.46,4.46,0,0,1-2.36-1c-.39-.45,0-1.08.33-1.41a9.77,9.77,0,0,1,3.35-1.79"/><path id="path182" class="cls-4" d="M31.65,53.09a14.91,14.91,0,0,1,4.27-.89,3.13,3.13,0,0,1,1.7.32,12.87,12.87,0,0,0-5.05,1.34,1.67,1.67,0,0,0-.87.83c0,.47.53.62.87.77a27.6,27.6,0,0,0,6.8,1.31,117.88,117.88,0,0,0,20.47-.2,47,47,0,0,0,7.65-1.28A4.33,4.33,0,0,0,69.72,54a1,1,0,0,0-.21-1.31c.51.29,1.23.65,1.13,1.34s-.93,1.1-1.53,1.44A24.3,24.3,0,0,1,63,57.42a83.9,83.9,0,0,1-18.61,1.29,104.51,104.51,0,0,1-14-1.41,4.46,4.46,0,0,1-2.36-1c-.39-.45,0-1.08.33-1.41a9.77,9.77,0,0,1,3.35-1.79Z"/><path id="path184" class="cls-3" d="M69.12,58.23a10.15,10.15,0,0,0,4.27-2.29,4.15,4.15,0,0,1-2.44,2.8,23.71,23.71,0,0,1-6.9,2,87.21,87.21,0,0,1-15.21.9,58.7,58.7,0,0,1-10.39-1,7.83,7.83,0,0,1-2.39-.86,72.35,72.35,0,0,0,9.2.84A98.51,98.51,0,0,0,60.44,60a52,52,0,0,0,8.67-1.8"/><path id="path186" class="cls-4" d="M69.12,58.23a10.15,10.15,0,0,0,4.27-2.29,4.15,4.15,0,0,1-2.44,2.8,23.71,23.71,0,0,1-6.9,2,87.21,87.21,0,0,1-15.21.9,58.7,58.7,0,0,1-10.39-1,7.83,7.83,0,0,1-2.39-.86,72.35,72.35,0,0,0,9.2.84A98.51,98.51,0,0,0,60.44,60a52,52,0,0,0,8.67-1.8Z"/><path id="path188" class="cls-1" d="M29.5,80.53c0-4.93,0-9.86,0-14.81,1,0,2,0,3.07,0,0,5.52,0,11,0,16.58a9.78,9.78,0,0,1-.81,4.55A7.4,7.4,0,0,1,27.89,90c-.5-.54-.95-1.11-1.44-1.65A5.32,5.32,0,0,0,29.28,85a26.56,26.56,0,0,0,.23-4.51"/><path id="path190" class="cls-2" d="M29.5,80.53c0-4.93,0-9.86,0-14.81,1,0,2,0,3.07,0,0,5.52,0,11,0,16.58a9.78,9.78,0,0,1-.81,4.55A7.4,7.4,0,0,1,27.89,90c-.5-.54-.95-1.11-1.44-1.65A5.32,5.32,0,0,0,29.28,85a26.56,26.56,0,0,0,.23-4.51Z"/><path id="path192" class="cls-1" d="M39.16,78.64A2.11,2.11,0,0,0,37.7,80,2.68,2.68,0,0,0,38,82.33a2.27,2.27,0,0,0,2.1.69,5.65,5.65,0,0,0,2.78-1.37c0-1.13,0-2.24,0-3.37a11.38,11.38,0,0,0-3.77.35Zm-3.73-7a13,13,0,0,1,6.49-1.08A4.55,4.55,0,0,1,45,72.05a4.32,4.32,0,0,1,.83,2.77V84.9H43.55c-.08-.5-.15-1-.21-1.52A7.82,7.82,0,0,1,40.49,85a6.13,6.13,0,0,1-3.74-.18,3.28,3.28,0,0,1-1.89-2.16,4.56,4.56,0,0,1,.81-4.16,6,6,0,0,1,3.55-1.79,19.13,19.13,0,0,1,3.71-.24,5.3,5.3,0,0,0-.39-2.83,2.49,2.49,0,0,0-2-.95,11.57,11.57,0,0,0-4.72.8c-.15-.6-.29-1.2-.42-1.8"/><path id="path194" class="cls-2" d="M39.16,78.64A2.11,2.11,0,0,0,37.7,80,2.68,2.68,0,0,0,38,82.33a2.27,2.27,0,0,0,2.1.69,5.65,5.65,0,0,0,2.78-1.37c0-1.13,0-2.24,0-3.37a11.38,11.38,0,0,0-3.77.35Zm-3.73-7a13,13,0,0,1,6.49-1.08A4.55,4.55,0,0,1,45,72.05a4.32,4.32,0,0,1,.83,2.77V84.9H43.55c-.08-.5-.15-1-.21-1.52A7.82,7.82,0,0,1,40.49,85a6.13,6.13,0,0,1-3.74-.18,3.28,3.28,0,0,1-1.89-2.16,4.56,4.56,0,0,1,.81-4.16,6,6,0,0,1,3.55-1.79,19.13,19.13,0,0,1,3.71-.24,5.3,5.3,0,0,0-.39-2.83,2.49,2.49,0,0,0-2-.95,11.57,11.57,0,0,0-4.72.8c-.15-.6-.29-1.2-.42-1.8"/><path id="path196" class="cls-1" d="M65.54,78.65A2.15,2.15,0,0,0,64.12,80a2.77,2.77,0,0,0,.33,2.33A2.31,2.31,0,0,0,66.6,83a5.49,5.49,0,0,0,2.77-1.41c0-1.1,0-2.21,0-3.32a11.27,11.27,0,0,0-3.82.36Zm-3.68-7a13,13,0,0,1,6.52-1.08,4.57,4.57,0,0,1,3,1.41,4.47,4.47,0,0,1,.89,3c0,3.32,0,6.63,0,10-.75,0-1.5,0-2.26,0-.08-.51-.14-1-.23-1.5A6.74,6.74,0,0,1,66,85.14a4.92,4.92,0,0,1-3.8-1,4.35,4.35,0,0,1,1.37-6.82,12.85,12.85,0,0,1,5.79-.9A5.73,5.73,0,0,0,69,73.72a2.31,2.31,0,0,0-1.85-1,11.4,11.4,0,0,0-4.9.78c-.14-.6-.29-1.2-.42-1.8"/><path id="path198" class="cls-2" d="M65.54,78.65A2.15,2.15,0,0,0,64.12,80a2.77,2.77,0,0,0,.33,2.33A2.31,2.31,0,0,0,66.6,83a5.49,5.49,0,0,0,2.77-1.41c0-1.1,0-2.21,0-3.32a11.27,11.27,0,0,0-3.82.36Zm-3.68-7a13,13,0,0,1,6.52-1.08,4.57,4.57,0,0,1,3,1.41,4.47,4.47,0,0,1,.89,3c0,3.32,0,6.63,0,10-.75,0-1.5,0-2.26,0-.08-.51-.14-1-.23-1.5A6.74,6.74,0,0,1,66,85.14a4.92,4.92,0,0,1-3.8-1,4.35,4.35,0,0,1,1.37-6.82,12.85,12.85,0,0,1,5.79-.9A5.73,5.73,0,0,0,69,73.72a2.31,2.31,0,0,0-1.85-1,11.4,11.4,0,0,0-4.9.78c-.14-.6-.29-1.2-.42-1.8"/><path id="path200" class="cls-1" d="M47.53,70.76h3.16c.62,2,1.22,4,1.83,5.94.36,1.22.81,2.42,1.07,3.67.14.56.26,1.13.42,1.67a55.94,55.94,0,0,0,2.8-11.27h3.07A57.42,57.42,0,0,1,55.48,84.9H51.87q-2.16-7.08-4.34-14.15"/><path id="path202" class="cls-2" d="M47.53,70.76h3.16c.62,2,1.22,4,1.83,5.94.36,1.22.81,2.42,1.07,3.67.14.56.26,1.13.42,1.67a55.94,55.94,0,0,0,2.8-11.27h3.07A57.42,57.42,0,0,1,55.48,84.9H51.87q-2.16-7.08-4.34-14.15Z"/><path id="path204" class="cls-1" d="M72.86,70.48h-.37v-.13h.9v.13H73v1.08h-.16V70.48"/><path id="path206" class="cls-2" d="M72.86,70.48h-.37v-.13h.9v.13H73v1.08h-.16V70.48Z"/><path id="path208" class="cls-1" d="M74.55,71c0-.17,0-.38,0-.52h0c0,.14-.09.29-.15.46l-.21.59H74l-.2-.58c-.06-.17-.1-.33-.14-.47h0c0,.15,0,.35,0,.54l0,.52h-.15l.08-1.22h.2l.21.59c0,.15.09.28.12.41h0c0-.12.08-.26.13-.41l.22-.59h.2l.08,1.22h-.16l0-.53"/><path id="path210" class="cls-2" d="M74.55,71c0-.17,0-.38,0-.52h0c0,.14-.09.29-.15.46l-.21.59H74l-.2-.58c-.06-.17-.1-.33-.14-.47h0c0,.15,0,.35,0,.54l0,.52h-.15l.08-1.22h.2l.21.59c0,.15.09.28.12.41h0c0-.12.08-.26.13-.41l.22-.59h.2l.08,1.22h-.16l0-.53Z"/></g></svg>