<svg id="Layer_1" data-name="Layer 1" xmlns="http://www.w3.org/2000/svg" viewBox="0 0 100 100"><defs><style>.cls-1{fill:#333;}</style></defs><title>macos_logo</title><path class="cls-1" d="M25.6,25.36H22.87V15.27q0-5.58-3.93-5.58a3.7,3.7,0,0,0-1.68.38,4.22,4.22,0,0,0-1.33,1A4.85,4.85,0,0,0,15,12.61a5,5,0,0,0-.31,1.75v11H12V14.61a6.09,6.09,0,0,0-.95-3.55A3.19,3.19,0,0,0,8.25,9.69a3.72,3.72,0,0,0-1.75.42,4.39,4.39,0,0,0-1.38,1.13,5.51,5.51,0,0,0-.91,1.6,5.18,5.18,0,0,0-.33,1.8V25.36H1.15v-13q0-1.06,0-2.2T1,7.76H3.44v2.88H3.7A6,6,0,0,1,9.16,7.4a5,5,0,0,1,3,.95A5.11,5.11,0,0,1,14,10.93h.07a6.75,6.75,0,0,1,2.42-2.64,6.36,6.36,0,0,1,3.37-.89,5,5,0,0,1,4.14,2A8.77,8.77,0,0,1,25.6,14.9V25.36Z"/><path class="cls-1" d="M42.13,23.09q-.05-1-.05-2.31V14q0-7-6.41-7a10,10,0,0,0-5.5,1.49l.65,1.89a7.89,7.89,0,0,1,4.45-1.27q4,0,4,4.34v.4q-5.07,0-7.73,1.66a5.39,5.39,0,0,0-2.66,4.86,4.9,4.9,0,0,0,.4,2A5,5,0,0,0,30.41,24,4.8,4.8,0,0,0,32,25a5.7,5.7,0,0,0,2.08.36,6,6,0,0,0,5.32-2.66h.11L39.81,25h2.52A15.16,15.16,0,0,1,42.13,23.09Zm-2.79-4a3.65,3.65,0,0,1-.4,1.71,4.2,4.2,0,0,1-1,1.29,4.71,4.71,0,0,1-1.46.82,4.92,4.92,0,0,1-1.66.29,3.12,3.12,0,0,1-2.19-.8A3.15,3.15,0,0,1,31.72,20q0-4.16,7.07-4.15h.55Z"/><path class="cls-1" d="M58.33,10.17a7.63,7.63,0,0,0-3.72-.87,6.41,6.41,0,0,0-2.66.53,5.64,5.64,0,0,0-2,1.46,6.6,6.6,0,0,0-1.24,2.2,8.52,8.52,0,0,0-.44,2.77,8.28,8.28,0,0,0,.46,2.81A6.33,6.33,0,0,0,50,21.23,5.66,5.66,0,0,0,52,22.62a6.22,6.22,0,0,0,2.52.49,9.36,9.36,0,0,0,3.9-.87l.54,2.11a11,11,0,0,1-5,1,9.21,9.21,0,0,1-3.5-.64,7.69,7.69,0,0,1-2.7-1.82,8,8,0,0,1-1.73-2.82,10.66,10.66,0,0,1-.6-3.68,10.27,10.27,0,0,1,.67-3.79,8.82,8.82,0,0,1,1.88-3,8.46,8.46,0,0,1,2.9-1.93A9.81,9.81,0,0,1,54.64,7,9,9,0,0,1,59,8l-.69,2.19Z"/><path class="cls-1" d="M81.69,7.4a11.88,11.88,0,0,0-2.15-3.93A9.61,9.61,0,0,0,76.17.91,10.39,10.39,0,0,0,71.77,0a10.23,10.23,0,0,0-7.91,3.59,12.35,12.35,0,0,0-2.28,4.08,16,16,0,0,0-.82,5.23,15.28,15.28,0,0,0,.78,5,11.94,11.94,0,0,0,2.2,3.93,10,10,0,0,0,7.73,3.52,10.45,10.45,0,0,0,4.5-.95,10,10,0,0,0,3.46-2.66,12.3,12.3,0,0,0,2.22-4.08,16.6,16.6,0,0,0,.79-5.25A15.84,15.84,0,0,0,81.69,7.4Zm-2.75,9.35a10.72,10.72,0,0,1-1.6,3.33,7.57,7.57,0,0,1-2.52,2.22,6.68,6.68,0,0,1-3.26.8,6.55,6.55,0,0,1-3.21-.8,7.82,7.82,0,0,1-2.49-2.19,10.7,10.7,0,0,1-1.62-3.26,13.47,13.47,0,0,1-.58-4,14.77,14.77,0,0,1,.58-4.25,10.64,10.64,0,0,1,1.62-3.35A7.5,7.5,0,0,1,68.37,3a6.87,6.87,0,0,1,3.26-.78A6.55,6.55,0,0,1,74.82,3,7.62,7.62,0,0,1,77.3,5.23a10.93,10.93,0,0,1,1.62,3.28,13.6,13.6,0,0,1,.58,4.06A14.68,14.68,0,0,1,78.94,16.75Z"/><path class="cls-1" d="M99,18.4a6.89,6.89,0,0,1-.58,2.86,6.15,6.15,0,0,1-1.66,2.2,7.54,7.54,0,0,1-2.6,1.4,11.12,11.12,0,0,1-3.42.49,10.27,10.27,0,0,1-6-1.57l.76-2.3A10,10,0,0,0,90.91,23a5.75,5.75,0,0,0,3.9-1.2,4,4,0,0,0,1.38-3.21,4.22,4.22,0,0,0-1.08-3,9.55,9.55,0,0,0-3.55-2.09q-6.3-2.37-6.3-6.92A6,6,0,0,1,85.82,4,6.22,6.22,0,0,1,87.41,1.9,7.17,7.17,0,0,1,89.83.55a9.47,9.47,0,0,1,3-.47A10.18,10.18,0,0,1,98,1.24L97.21,3.5a8.16,8.16,0,0,0-4.45-1.13,5.29,5.29,0,0,0-3.42,1.06A3.42,3.42,0,0,0,88,6.24a4.34,4.34,0,0,0,.24,1.49A3.6,3.6,0,0,0,89,9a6.17,6.17,0,0,0,1.48,1.11,20.86,20.86,0,0,0,2.35,1.11,16.82,16.82,0,0,1,2.81,1.4,8.66,8.66,0,0,1,1.91,1.62,5.46,5.46,0,0,1,1.08,1.91A7.34,7.34,0,0,1,99,18.4Z"/></svg>