<svg id="Layer_1" data-name="Layer 1" xmlns="http://www.w3.org/2000/svg" xmlns:xlink="http://www.w3.org/1999/xlink" viewBox="0 0 100 100"><defs><style>.cls-1,.cls-5{fill:url(#linear-gradient);}.cls-1{clip-rule:evenodd;}.cls-2,.cls-4{fill:#699f63;}.cls-3{fill:#333;}.cls-3,.cls-4,.cls-5{fill-rule:evenodd;}.cls-6{clip-path:url(#clip-path);}.cls-7{fill:none;}.cls-8{fill:url(#linear-gradient-3);}.cls-9{fill:url(#linear-gradient-4);}.cls-10{fill:url(#linear-gradient-5);}.cls-11{fill:url(#linear-gradient-6);}.cls-12{fill:url(#linear-gradient-7);}.cls-13{fill:url(#linear-gradient-8);}</style><linearGradient id="linear-gradient" x1="41.36" y1="18.06" x2="32.84" y2="35.44" gradientUnits="userSpaceOnUse"><stop offset="0" stop-color="#41873f"/><stop offset="0.33" stop-color="#418b3d"/><stop offset="0.64" stop-color="#409637"/><stop offset="0.93" stop-color="#3fa92d"/><stop offset="1" stop-color="#3fae2a"/></linearGradient><clipPath id="clip-path"><path id="_Clipping_Path_" data-name="&lt;Clipping Path&gt;" class="cls-1" d="M38.1,14A1.14,1.14,0,0,0,37,14l-9.43,5.44a1.14,1.14,0,0,0-.57,1V31.33a1.14,1.14,0,0,0,.57,1L37,37.76a1.14,1.14,0,0,0,1.14,0l9.43-5.45a1.14,1.14,0,0,0,.57-1V20.43a1.14,1.14,0,0,0-.57-1Z"/></clipPath><linearGradient id="linear-gradient-3" x1="36.09" y1="27.15" x2="60" y2="9.49" gradientUnits="userSpaceOnUse"><stop offset="0.14" stop-color="#41873f"/><stop offset="0.4" stop-color="#54a044"/><stop offset="0.71" stop-color="#66b748"/><stop offset="0.91" stop-color="#6cc04a"/></linearGradient><linearGradient id="linear-gradient-4" x1="26.63" y1="12.04" x2="48.43" y2="12.04" gradientUnits="userSpaceOnUse"><stop offset="0.09" stop-color="#6cc04a"/><stop offset="0.29" stop-color="#66b748"/><stop offset="0.6" stop-color="#54a044"/><stop offset="0.86" stop-color="#41873f"/></linearGradient><linearGradient id="linear-gradient-5" x1="26.63" y1="25.88" x2="48.43" y2="25.88" xlink:href="#linear-gradient-4"/><linearGradient id="linear-gradient-6" x1="26.63" y1="32.1" x2="48.43" y2="32.1" xlink:href="#linear-gradient-4"/><linearGradient id="linear-gradient-7" x1="26.63" y1="34.92" x2="48.43" y2="34.92" xlink:href="#linear-gradient-4"/><linearGradient id="linear-gradient-8" x1="51.61" y1="17.54" x2="38.16" y2="44.97" xlink:href="#linear-gradient"/></defs><title>nodejs_logo</title><path class="cls-2" d="M49.92,60.63a1.87,1.87,0,0,1-.94-.25l-3-1.77c-.45-.25-.23-.34-.08-.39a6,6,0,0,0,1.35-.61.23.23,0,0,1,.22,0L49.78,59a.29.29,0,0,0,.28,0L59,53.83a.28.28,0,0,0,.14-.24V43.27A.29.29,0,0,0,59,43l-8.94-5.16a.28.28,0,0,0-.28,0L40.85,43a.29.29,0,0,0-.14.24V53.59a.27.27,0,0,0,.14.24l2.45,1.42c1.33.66,2.14-.12,2.14-.9V44.15a.26.26,0,0,1,.26-.26h1.13a.26.26,0,0,1,.26.26V54.34a2.48,2.48,0,0,1-2.65,2.79,3.82,3.82,0,0,1-2.06-.56L40,55.22a1.89,1.89,0,0,1-.94-1.63V43.27A1.88,1.88,0,0,1,40,41.64L49,36.47a2,2,0,0,1,1.88,0l8.94,5.17a1.89,1.89,0,0,1,.94,1.63V53.59a1.89,1.89,0,0,1-.94,1.63l-8.94,5.16A1.88,1.88,0,0,1,49.92,60.63Z"/><path class="cls-2" d="M52.69,53.52c-3.91,0-4.73-1.8-4.73-3.3a.26.26,0,0,1,.26-.26h1.16a.26.26,0,0,1,.26.22c.17,1.18.69,1.77,3.06,1.77,1.88,0,2.69-.43,2.69-1.43,0-.58-.23-1-3.15-1.29-2.45-.24-4-.78-4-2.74,0-1.8,1.52-2.88,4.07-2.88,2.86,0,4.28,1,4.46,3.13a.26.26,0,0,1-.26.28H55.37a.26.26,0,0,1-.25-.2c-.28-1.24-1-1.63-2.79-1.63-2.06,0-2.3.72-2.3,1.25s.28.84,3.06,1.21,4.05.88,4.05,2.81S55.52,53.52,52.69,53.52Z"/><path class="cls-2" d="M65.58,42.7A1.72,1.72,0,1,1,63.85,41,1.73,1.73,0,0,1,65.58,42.7Zm-3.17,0a1.45,1.45,0,1,0,1.44-1.44A1.45,1.45,0,0,0,62.41,42.7Zm.8-1h.67c.23,0,.67,0,.67.51a.44.44,0,0,1-.37.47c.27,0,.28.19.32.44a1.9,1.9,0,0,0,.1.51h-.41c0-.09-.07-.58-.07-.61s-.06-.16-.2-.16h-.34v.77h-.37Zm.37.85h.3a.26.26,0,0,0,.29-.27c0-.26-.18-.26-.28-.26h-.31Z"/><path class="cls-3" d="M22.24,20.26a1.14,1.14,0,0,0-.57-1l-9.48-5.46a1.12,1.12,0,0,0-.52-.15h-.1a1.13,1.13,0,0,0-.52.15L1.56,19.27a1.15,1.15,0,0,0-.57,1L1,35a.56.56,0,0,0,.29.49.55.55,0,0,0,.57,0L7.5,32.22a1.15,1.15,0,0,0,.57-1V24.37a1.14,1.14,0,0,1,.57-1L11,22a1.14,1.14,0,0,1,.57-.15,1.12,1.12,0,0,1,.57.15l2.4,1.38a1.14,1.14,0,0,1,.57,1v6.86a1.16,1.16,0,0,0,.57,1l5.63,3.23a.56.56,0,0,0,.57,0,.57.57,0,0,0,.28-.49Z"/><path class="cls-3" d="M67.85.07a.57.57,0,0,0-.85.5V15.12a.4.4,0,0,1-.6.35L64,14.1a1.15,1.15,0,0,0-1.14,0l-9.48,5.47a1.14,1.14,0,0,0-.57,1V31.51a1.15,1.15,0,0,0,.57,1L62.88,38A1.15,1.15,0,0,0,64,38L73.5,32.5a1.15,1.15,0,0,0,.57-1V4.22a1.15,1.15,0,0,0-.59-1ZM67,27.91a.29.29,0,0,1-.14.25L63.57,30a.29.29,0,0,1-.29,0L60,28.16a.29.29,0,0,1-.14-.25V24.15a.29.29,0,0,1,.14-.25L63.28,22a.29.29,0,0,1,.29,0l3.26,1.88a.29.29,0,0,1,.14.25Z"/><path class="cls-3" d="M99.42,24.06a1.14,1.14,0,0,0,.57-1V20.41a1.15,1.15,0,0,0-.57-1L90,14a1.15,1.15,0,0,0-1.15,0l-9.48,5.47a1.14,1.14,0,0,0-.57,1V31.36a1.14,1.14,0,0,0,.58,1l9.42,5.37a1.14,1.14,0,0,0,1.12,0l5.7-3.17a.57.57,0,0,0,0-1l-9.54-5.48a.57.57,0,0,1-.29-.5V24.16a.57.57,0,0,1,.29-.5l3-1.71a.57.57,0,0,1,.57,0l3,1.71a.57.57,0,0,1,.29.5v2.7a.57.57,0,0,0,.86.5Z"/><path class="cls-4" d="M89.29,23.54a.22.22,0,0,1,.22,0l1.82,1a.22.22,0,0,1,.11.19v2.1a.22.22,0,0,1-.11.19l-1.82,1a.22.22,0,0,1-.22,0l-1.82-1a.22.22,0,0,1-.11-.19v-2.1a.22.22,0,0,1,.11-.19Z"/><path id="_Clipping_Path_2" data-name="&lt;Clipping Path&gt;" class="cls-5" d="M38.1,14A1.14,1.14,0,0,0,37,14l-9.43,5.44a1.14,1.14,0,0,0-.57,1V31.33a1.14,1.14,0,0,0,.57,1L37,37.76a1.14,1.14,0,0,0,1.14,0l9.43-5.45a1.14,1.14,0,0,0,.57-1V20.43a1.14,1.14,0,0,0-.57-1Z"/><g class="cls-6"><path class="cls-7" d="M36.94,14l-9.45,5.44a1.18,1.18,0,0,0-.61,1V31.33a1.1,1.1,0,0,0,.29.72L37.79,13.89A1.16,1.16,0,0,0,36.94,14Z"/><path class="cls-7" d="M37.85,37.87a1.13,1.13,0,0,0,.27-.11l9.44-5.45a1.16,1.16,0,0,0,.59-1V20.43a1.13,1.13,0,0,0-.34-.79Z"/><path class="cls-8" d="M47.55,19.45,38.09,14a1.13,1.13,0,0,0-.3-.12L27.18,32.05a1.3,1.3,0,0,0,.32.26L37,37.76a1.15,1.15,0,0,0,.88.11l10-18.22A1.24,1.24,0,0,0,47.55,19.45Z"/><path class="cls-7" d="M48.14,31.33V20.43a1.17,1.17,0,0,0-.6-1L38.09,14a1.13,1.13,0,0,0-.35-.13L48.11,31.59A1,1,0,0,0,48.14,31.33Z"/><path class="cls-7" d="M27.49,19.45a1.18,1.18,0,0,0-.61,1V31.33a1.18,1.18,0,0,0,.61,1L37,37.76a1.15,1.15,0,0,0,.73.14L27.55,19.42Z"/><polygon class="cls-9" points="36.65 12.01 36.52 12.08 36.69 12.08 36.65 12.01"/><path class="cls-10" d="M47.55,32.31a1.19,1.19,0,0,0,.56-.72L37.74,13.88a1.15,1.15,0,0,0-.8.13l-9.39,5.41L37.7,37.9a1.14,1.14,0,0,0,.42-.14Z"/><polygon class="cls-11" points="48.43 32.14 48.37 32.03 48.37 32.17 48.43 32.14"/><path class="cls-12" d="M47.55,32.31l-9.44,5.45a1.14,1.14,0,0,1-.42.14l.19.34,10.48-6.07V32l-.26-.44A1.19,1.19,0,0,1,47.55,32.31Z"/><path class="cls-13" d="M47.55,32.31l-9.44,5.45a1.14,1.14,0,0,1-.42.14l.19.34,10.48-6.07V32l-.26-.44A1.19,1.19,0,0,1,47.55,32.31Z"/></g></svg>