<svg id="Layer_1" data-name="Layer 1" xmlns="http://www.w3.org/2000/svg" xmlns:xlink="http://www.w3.org/1999/xlink" viewBox="0 0 100 100"><defs><style>.cls-1{fill:none;}.cls-2{clip-path:url(#clip-path);}.cls-3{fill:url(#radial-gradient);}.cls-4{clip-path:url(#clip-path-2);}.cls-5{fill:#777bb3;}.cls-6{fill:#fff;}</style><clipPath id="clip-path"><path class="cls-1" d="M5,26.72c0,13.25,20.42,24,45.6,24S96.2,40,96.2,26.72s-20.42-24-45.6-24S5,13.47,5,26.72"/></clipPath><radialGradient id="radial-gradient" cx="-1077.03" cy="101.14" r="0.13" gradientTransform="matrix(453.82, 0, 0, -453.82, 488815.67, 45911.24)" gradientUnits="userSpaceOnUse"><stop offset="0" stop-color="#aeb2d5"/><stop offset="0.3" stop-color="#aeb2d5"/><stop offset="0.75" stop-color="#484c89"/><stop offset="1" stop-color="#484c89"/></radialGradient><clipPath id="clip-path-2"><rect class="cls-1" x="3.1" width="95" height="53.44"/></clipPath></defs><title>php_logo</title><g id="g3438"><g id="g3440"><g class="cls-2"><g id="g3442"><g id="g3448"><g id="g3450"><path id="path3462" class="cls-3" d="M5,26.72c0,13.25,20.42,24,45.6,24S96.2,40,96.2,26.72s-20.42-24-45.6-24S5,13.47,5,26.72"/></g></g></g></g></g><g id="g3464"><g class="cls-4"><g id="g3466"><g id="g3472"><path id="path3474" class="cls-5" d="M50.6,48.92c24.2,0,43.82-9.94,43.82-22.21S74.8,4.51,50.6,4.51,6.78,14.45,6.78,26.72,26.4,48.92,50.6,48.92"/></g></g></g></g><g id="g3476"><g class="cls-4"><g id="g3478"><g id="g3484"><path id="path3486" d="M29.77,29.47a7.27,7.27,0,0,0,4.42-1.09,5.9,5.9,0,0,0,1.91-3.69c.31-1.62.19-2.75-.36-3.36S34,20.4,32.13,20.4H29l-1.76,9.07ZM19.37,40.65a.49.49,0,0,1-.49-.59l4.67-24a.5.5,0,0,1,.49-.4H34.12c3.17,0,5.52.86,7,2.55s1.95,4.09,1.37,7.08A10.94,10.94,0,0,1,39,31.41a9.79,9.79,0,0,1-3.67,2.2,16.59,16.59,0,0,1-5,.65H26.26l-1.16,6a.49.49,0,0,1-.49.4H19.37Z"/></g><g id="g3488"><path id="path3490" class="cls-6" d="M29.36,20.9h2.77c2.21,0,3,.49,3.24.78.43.48.52,1.49.24,2.93A5.44,5.44,0,0,1,33.89,28a6.82,6.82,0,0,1-4.11,1h-2Zm4.75-5.77H24a1,1,0,0,0-1,.8L18.4,40a1,1,0,0,0,1,1.18h5.24a1,1,0,0,0,1-.8l1.09-5.59h3.67a17.1,17.1,0,0,0,5.19-.67,10.27,10.27,0,0,0,3.85-2.31A11.44,11.44,0,0,0,43,25.34c.61-3.15.11-5.68-1.48-7.5s-4.06-2.72-7.37-2.72M26.59,30h3.18a7.69,7.69,0,0,0,4.72-1.19,6.34,6.34,0,0,0,2.09-4q.52-2.68-.47-3.78t-4-1.1H28.55L26.59,30m7.53-13.85q4.54,0,6.63,2.38T42,25.16A10.45,10.45,0,0,1,38.71,31a9.24,9.24,0,0,1-3.48,2.09,16,16,0,0,1-4.89.62H25.85l-1.24,6.39H19.37l4.67-24H34.12"/></g><g id="g3492"><path id="path3494" d="M54.49,34.25a.49.49,0,0,1-.49-.59L56.07,23c.2-1,.15-1.74-.14-2s-.7-.5-2.24-.5H49.95l-2.6,13.37a.5.5,0,0,1-.49.4h-5.2a.49.49,0,0,1-.49-.59l4.67-24a.49.49,0,0,1,.49-.4h5.2a.49.49,0,0,1,.49.59l-1.13,5.8h4c3.07,0,5.15.54,6.36,1.65s1.62,3,1.15,5.4L60.25,33.85a.49.49,0,0,1-.49.4Z"/></g><g id="g3496"><path id="path3498" class="cls-6" d="M51.53,8.73h-5.2a1,1,0,0,0-1,.8l-4.67,24a1,1,0,0,0,1,1.18h5.2a1,1,0,0,0,1-.8l2.52-13h3.34c1.54,0,1.87.33,1.88.34s.22.57,0,1.61L53.52,33.57a1,1,0,0,0,1,1.18h5.28a1,1,0,0,0,1-.8l2.17-11.19c.51-2.63.07-4.6-1.3-5.86s-3.5-1.78-6.7-1.78H51.49l1-5.21a1,1,0,0,0-1-1.18m0,1-1.24,6.39h4.63q4.37,0,6,1.52t1,4.94L59.77,33.76H54.49l2.07-10.64a2.89,2.89,0,0,0-.26-2.48A3.65,3.65,0,0,0,53.69,20H49.54L46.86,33.76h-5.2l4.67-24h5.2"/></g><g id="g3500"><path id="path3502" d="M70.65,29.47a7.27,7.27,0,0,0,4.42-1.09A5.9,5.9,0,0,0,77,24.69c.31-1.62.19-2.75-.36-3.36S74.84,20.4,73,20.4H69.83l-1.76,9.07ZM60.25,40.65a.49.49,0,0,1-.49-.59l4.67-24a.5.5,0,0,1,.49-.4H75c3.17,0,5.52.86,7,2.55s1.95,4.09,1.37,7.08a10.94,10.94,0,0,1-3.44,6.16,9.79,9.79,0,0,1-3.67,2.2,16.59,16.59,0,0,1-5,.65H67.13l-1.16,6a.5.5,0,0,1-.49.4Z"/></g><g id="g3504"><path id="path3506" class="cls-6" d="M70.23,20.9H73c2.21,0,3,.49,3.24.78.43.48.52,1.49.24,2.93A5.44,5.44,0,0,1,74.76,28a6.82,6.82,0,0,1-4.11,1h-2ZM75,15.12H64.92a1,1,0,0,0-1,.8L59.28,40a1,1,0,0,0,1,1.18h5.24a1,1,0,0,0,1-.8l1.09-5.59h3.67a17.1,17.1,0,0,0,5.19-.67,10.27,10.27,0,0,0,3.85-2.31,11.45,11.45,0,0,0,3.59-6.43c.61-3.15.11-5.67-1.48-7.5S78.3,15.12,75,15.12M67.46,30h3.18a7.69,7.69,0,0,0,4.72-1.19,6.34,6.34,0,0,0,2.09-4Q78,22.11,77,21t-4-1.1H69.42L67.46,30M75,16.11q4.54,0,6.63,2.38t1.25,6.66A10.45,10.45,0,0,1,79.58,31a9.24,9.24,0,0,1-3.48,2.09,16,16,0,0,1-4.89.62H66.73l-1.24,6.39H60.25l4.67-24H75"/></g></g></g></g></g></svg>