<svg id="Layer_1" data-name="Layer 1" xmlns="http://www.w3.org/2000/svg" viewBox="0 0 100 100"><defs><style>.cls-1{fill:#53c1de;}.cls-2{fill:#fff;}</style></defs><title>reactnative_logo</title><path class="cls-1" d="M77.07,24.22q-1.34-.46-2.7-.85.23-.92.42-1.84c2-9.94.71-17.94-3.86-20.58-4.38-2.53-11.55.11-18.79,6.41Q51.06,8.29,50,9.28,49.36,8.62,48.65,8C41.06,1.26,33.46-1.58,28.89,1.06c-4.38,2.53-5.67,10.06-3.83,19.48q.28,1.4.62,2.78c-1.08.31-2.11.63-3.11,1C13.68,27.4,8,32.26,8,37.3c0,5.21,6.1,10.43,15.36,13.59q1.13.38,2.27.71-.37,1.49-.66,3c-1.76,9.25-.38,16.6,4,19.12S41,73.65,48.4,67.2q.87-.76,1.75-1.62,1.11,1.07,2.27,2.07c7.14,6.14,14.19,8.62,18.55,6.1s6-10.5,4.07-20.1q-.22-1.1-.5-2.25l1.56-.49C85.73,47.73,92,42.57,92,37.3c0-5.06-5.86-10-14.93-13.07Z"/><path class="cls-2" d="M75,47.52,73.57,48a84.22,84.22,0,0,0-4.25-10.64A84.19,84.19,0,0,0,73.4,26.83c.86.25,1.69.51,2.5.79,7.77,2.68,12.51,6.63,12.51,9.68,0,3.25-5.12,7.46-13.44,10.22Zm-3.45,6.84a30.39,30.39,0,0,1,.4,11.09c-.5,2.7-1.51,4.49-2.75,5.21-2.65,1.53-8.31-.46-14.41-5.71Q53.72,64,52.65,63a84.33,84.33,0,0,0,7-8.94,83.77,83.77,0,0,0,11.38-1.75q.26,1,.45,2Zm-34.89,16c-2.59.91-4.65.94-5.89.22C28.1,69.08,27,63.18,28.5,55.27q.27-1.4.61-2.79a84.38,84.38,0,0,0,11.32,1.64A87.32,87.32,0,0,0,47.64,63q-.78.76-1.6,1.47a30.39,30.39,0,0,1-9.4,5.89ZM24.52,47.5a30.4,30.4,0,0,1-9.8-5.2c-2.08-1.78-3.14-3.56-3.14-5,0-3.06,4.56-7,12.17-9.61q1.43-.5,2.89-.91a86.06,86.06,0,0,0,4.09,10.61,87.37,87.37,0,0,0-4.15,10.76Q25.55,47.85,24.52,47.5Zm4.06-27.65C27,11.78,28.05,5.69,30.69,4.17c2.81-1.63,9,.69,15.57,6.51.42.37.84.76,1.26,1.16a86,86,0,0,0-7.16,8.86,87.68,87.68,0,0,0-11.21,1.74q-.32-1.29-.58-2.59ZM64.82,28.8q-1.23-2.13-2.55-4.2c2.68.34,5.25.79,7.66,1.34a76.55,76.55,0,0,1-2.69,7.23Q66.07,31,64.82,28.8ZM50,14.4a76.74,76.74,0,0,1,4.94,6q-5-.23-9.93,0c1.63-2.15,3.3-4.15,5-6ZM35.17,28.82Q33.93,31,32.8,33.16c-1-2.48-1.94-4.92-2.67-7.27,2.4-.54,5-1,7.62-1.31Q36.41,26.67,35.17,28.82Zm2.65,21.44A76.41,76.41,0,0,1,30.08,49c.74-2.39,1.66-4.88,2.72-7.42q1.14,2.2,2.38,4.35T37.82,50.26ZM50.14,60.45c-1.7-1.84-3.4-3.87-5.05-6q2.41.09,4.91.1t5.07-.11A76.31,76.31,0,0,1,50.14,60.45Zm17.13-19a76.21,76.21,0,0,1,2.82,7.39,76.16,76.16,0,0,1-7.84,1.34q1.33-2.11,2.58-4.27t2.44-4.45Zm-5.54,2.66q-1.91,3.32-4,6.5c-2.49.18-5.07.27-7.69.27s-5.16-.08-7.61-.24q-2.18-3.18-4.11-6.51t-3.58-6.77q1.66-3.45,3.57-6.77h0q1.91-3.32,4.07-6.48c2.5-.19,5.06-.29,7.65-.29s5.17.1,7.66.29q2.14,3.16,4,6.46t3.62,6.74q-1.68,3.46-3.61,6.8Zm7.4-40.07C71.94,5.68,73,12.22,71.26,20.8q-.17.84-.38,1.67A86,86,0,0,0,59.66,20.7a84.3,84.3,0,0,0-7.1-8.86q.94-.91,1.93-1.77c6.2-5.4,12-7.53,14.64-6Z"/><path class="cls-1" d="M50,29.87a7.5,7.5,0,1,1-7.5,7.5,7.5,7.5,0,0,1,7.5-7.5"/></svg>