<svg id="Layer_1" data-name="Layer 1" xmlns="http://www.w3.org/2000/svg" xmlns:xlink="http://www.w3.org/1999/xlink" viewBox="0 0 100 100"><defs><style>.cls-1{fill:url(#linear-gradient);}.cls-2{fill:url(#linear-gradient-2);}.cls-3{fill:url(#linear-gradient-3);}.cls-4{fill:url(#linear-gradient-4);}.cls-5{fill:url(#linear-gradient-5);}.cls-6{fill:url(#linear-gradient-6);}.cls-7{fill:url(#linear-gradient-7);}.cls-8{fill:url(#linear-gradient-8);}.cls-9{fill:#fff;}.cls-10{fill:url(#linear-gradient-9);}.cls-11{fill:url(#linear-gradient-10);}.cls-12{fill:url(#linear-gradient-11);}.cls-13{fill:url(#linear-gradient-12);}.cls-14{fill:#9e1209;}.cls-15{fill:url(#radial-gradient);}.cls-16{fill:url(#radial-gradient-2);}.cls-17{fill:url(#linear-gradient-13);}.cls-18{fill:url(#linear-gradient-14);}</style><linearGradient id="linear-gradient" x1="76.5" y1="25.85" x2="61.73" y2="51.92" gradientTransform="matrix(1, 0, 0, -1, 0, 102)" gradientUnits="userSpaceOnUse"><stop offset="0" stop-color="#fb7655"/><stop offset="0.41" stop-color="#e42b1e"/><stop offset="0.99" stop-color="#900"/><stop offset="1" stop-color="#900"/></linearGradient><linearGradient id="linear-gradient-2" x1="83.86" y1="47.75" x2="64.83" y2="60.52" gradientTransform="matrix(1, 0, 0, -1, 0, 102)" gradientUnits="userSpaceOnUse"><stop offset="0" stop-color="#871101"/><stop offset="0.99" stop-color="#911209"/><stop offset="1" stop-color="#911209"/></linearGradient><linearGradient id="linear-gradient-3" x1="68.63" y1="25.06" x2="49.6" y2="37.83" xlink:href="#linear-gradient-2"/><linearGradient id="linear-gradient-4" x1="28.67" y1="56.99" x2="31.62" y2="37.82" gradientTransform="matrix(1, 0, 0, -1, 0, 102)" gradientUnits="userSpaceOnUse"><stop offset="0" stop-color="#fff"/><stop offset="0.23" stop-color="#e57252"/><stop offset="0.46" stop-color="#de3b20"/><stop offset="0.99" stop-color="#a60003"/><stop offset="1" stop-color="#a60003"/></linearGradient><linearGradient id="linear-gradient-5" x1="48.96" y1="74.9" x2="50.05" y2="55.33" gradientTransform="matrix(1, 0, 0, -1, 0, 102)" gradientUnits="userSpaceOnUse"><stop offset="0" stop-color="#fff"/><stop offset="0.23" stop-color="#e4714e"/><stop offset="0.56" stop-color="#be1a0d"/><stop offset="0.99" stop-color="#a80d00"/><stop offset="1" stop-color="#a80d00"/></linearGradient><linearGradient id="linear-gradient-6" x1="66.97" y1="92.98" x2="70.23" y2="78.96" gradientTransform="matrix(1, 0, 0, -1, 0, 102)" gradientUnits="userSpaceOnUse"><stop offset="0" stop-color="#fff"/><stop offset="0.18" stop-color="#e46342"/><stop offset="0.4" stop-color="#c82410"/><stop offset="0.99" stop-color="#a80d00"/><stop offset="1" stop-color="#a80d00"/></linearGradient><linearGradient id="linear-gradient-7" x1="57.03" y1="97.92" x2="71.06" y2="104.93" gradientTransform="matrix(1, 0, 0, -1, 0, 102)" gradientUnits="userSpaceOnUse"><stop offset="0" stop-color="#fff"/><stop offset="0.54" stop-color="#c81f11"/><stop offset="0.99" stop-color="#bf0905"/><stop offset="1" stop-color="#bf0905"/></linearGradient><linearGradient id="linear-gradient-8" x1="16.38" y1="61.88" x2="17.53" y2="50.32" gradientTransform="matrix(1, 0, 0, -1, 0, 102)" gradientUnits="userSpaceOnUse"><stop offset="0" stop-color="#fff"/><stop offset="0.31" stop-color="#de4024"/><stop offset="0.99" stop-color="#bf190b"/><stop offset="1" stop-color="#bf190b"/></linearGradient><linearGradient id="linear-gradient-9" x1="8.44" y1="47.2" x2="62.7" y2="102.99" gradientTransform="matrix(1, 0, 0, -1, 0, 102)" gradientUnits="userSpaceOnUse"><stop offset="0" stop-color="#bd0012"/><stop offset="0.07" stop-color="#fff"/><stop offset="0.17" stop-color="#fff"/><stop offset="0.27" stop-color="#c82f1c"/><stop offset="0.33" stop-color="#820c01"/><stop offset="0.46" stop-color="#a31601"/><stop offset="0.72" stop-color="#b31301"/><stop offset="0.99" stop-color="#e82609"/><stop offset="1" stop-color="#e82609"/></linearGradient><linearGradient id="linear-gradient-10" x1="50" y1="41.57" x2="33.66" y2="45.61" gradientTransform="matrix(1, 0, 0, -1, 0, 102)" gradientUnits="userSpaceOnUse"><stop offset="0" stop-color="#8c0c01"/><stop offset="0.54" stop-color="#990c00"/><stop offset="0.99" stop-color="#a80d0e"/><stop offset="1" stop-color="#a80d0e"/></linearGradient><linearGradient id="linear-gradient-11" x1="78.07" y1="61.19" x2="63.56" y2="74.2" gradientTransform="matrix(1, 0, 0, -1, 0, 102)" gradientUnits="userSpaceOnUse"><stop offset="0" stop-color="#7e110b"/><stop offset="0.99" stop-color="#9e0c00"/><stop offset="1" stop-color="#9e0c00"/></linearGradient><linearGradient id="linear-gradient-12" x1="83.41" y1="85.06" x2="76.18" y2="92.79" gradientTransform="matrix(1, 0, 0, -1, 0, 102)" gradientUnits="userSpaceOnUse"><stop offset="0" stop-color="#79130d"/><stop offset="0.99" stop-color="#9e120b"/><stop offset="1" stop-color="#9e120b"/></linearGradient><radialGradient id="radial-gradient" cx="67.91" cy="77.04" r="20.02" gradientTransform="matrix(0.89, 0, 0, -0.89, 5.45, 96.53)" gradientUnits="userSpaceOnUse"><stop offset="0" stop-color="#a80d00"/><stop offset="0.99" stop-color="#7e0e08"/><stop offset="1" stop-color="#7e0e08"/></radialGradient><radialGradient id="radial-gradient-2" cx="40.19" cy="50.67" r="26.61" gradientTransform="matrix(0.89, 0, 0, -0.89, 5.45, 96.53)" gradientUnits="userSpaceOnUse"><stop offset="0" stop-color="#a30c00"/><stop offset="0.99" stop-color="#800e08"/><stop offset="1" stop-color="#800e08"/></radialGradient><linearGradient id="linear-gradient-13" x1="24.42" y1="32.28" x2="18.53" y2="52.28" gradientTransform="matrix(1, 0, 0, -1, 0, 102)" gradientUnits="userSpaceOnUse"><stop offset="0" stop-color="#8b2114"/><stop offset="0.43" stop-color="#9e100a"/><stop offset="0.99" stop-color="#b3100c"/><stop offset="1" stop-color="#b3100c"/></linearGradient><linearGradient id="linear-gradient-14" x1="69.64" y1="98.54" x2="82.85" y2="92.71" gradientTransform="matrix(1, 0, 0, -1, 0, 102)" gradientUnits="userSpaceOnUse"><stop offset="0" stop-color="#b31000"/><stop offset="0.44" stop-color="#910f08"/><stop offset="0.99" stop-color="#791c12"/><stop offset="1" stop-color="#791c12"/></linearGradient></defs><title>ruby_logo</title><polygon id="polygon3282" class="cls-1" points="69.23 46.07 29.27 69.81 81.01 66.29 85 14.11 69.23 46.07"/><polygon id="polygon3293" class="cls-2" points="81.1 66.26 76.65 35.56 64.54 51.56 81.1 66.26"/><polygon id="polygon3304" class="cls-3" points="81.16 66.26 48.57 63.7 29.44 69.74 81.16 66.26"/><polygon id="polygon3319" class="cls-4" points="29.48 69.75 37.63 43.08 19.71 46.91 29.48 69.75"/><polygon id="polygon3334" class="cls-5" points="64.53 51.65 57.04 22.31 35.61 42.4 64.53 51.65"/><polygon id="polygon3349" class="cls-6" points="83.3 22.72 63.04 6.17 57.4 24.41 83.3 22.72"/><polygon id="polygon3362" class="cls-7" points="73.83 0.27 61.91 6.86 54.39 0.18 73.83 0.27"/><polygon id="polygon3375" class="cls-8" points="15 55.85 19.99 46.75 15.95 35.9 15 55.85"/><path id="path3377" class="cls-9" d="M15.69,35.56l4.06,11.52,17.65-4L57.56,24.39,63.25,6.32,54.29,0,39.06,5.7C34.27,10.16,25,19,24.62,19.16S18.47,30.32,15.69,35.56Z"/><path id="path3400" class="cls-10" d="M30,14.86C40.35,4.55,53.75-1.54,58.9,3.65s-.31,17.8-10.71,28.11S24.55,48.49,19.41,43.3,19.55,25.16,30,14.86Z"/><path id="path3413" class="cls-11" d="M29.49,69.74,37.56,43,64.38,51.6C54.69,60.69,43.9,68.38,29.49,69.74Z"/><path id="path3424" class="cls-12" d="M57.59,24.34l6.89,27.28c8.1-8.52,15.37-17.68,18.93-29Z"/><path id="path3435" class="cls-13" d="M83.34,22.75C86.1,14.43,86.73,2.5,73.74.29L63.08,6.18Z"/><path id="path3437" class="cls-14" d="M15,55.73c.38,13.73,10.28,13.93,14.5,14.05L19.76,47Z"/><path id="path3448" class="cls-15" d="M57.63,24.38c6.23,3.83,18.77,11.51,19,11.65s5.41-8.45,6.55-13.36Z"/><path id="path3459" class="cls-16" d="M37.55,43l10.8,20.83a69.81,69.81,0,0,0,16-12.2Z"/><path id="path3472" class="cls-17" d="M19.72,47.06,18.19,65.27c2.89,3.94,6.86,4.29,11,4C26.2,61.75,20.18,46.75,19.72,47.06Z"/><path id="path3485" class="cls-18" d="M63,6.22l21.45,3c-1.14-4.85-4.66-8-10.65-9Z"/></svg>