<svg id="Layer_1" data-name="Layer 1" xmlns="http://www.w3.org/2000/svg" viewBox="0 0 100 100"><defs><style>.cls-1{fill:#002835;}</style></defs><title>unity_logo</title><path class="cls-1" d="M33.83,18h0L36,14.24h0L32.2,0,18,3.82h0l-2.2,3.81H11.36L.93,18.06,11.36,28.48h0l0,0h4.4L18,32.3h0L32.2,36.11,36,21.87h0v0ZM16.11,8.24l11-2.95-6.35,11H8.06Zm0,19.64L8.06,19.82h12.7l6.35,11Zm14.06,1.18-6.35-11,6.35-11,2.95,11Z"/><path class="cls-1" d="M56.34,11.09h-3.5v7.85c0,2.06-.84,3.7-3.33,3.7S46.34,21,46.34,18.83V11.09h-3.5V19.7c0,2.54.81,6.16,5.57,6.18,2.62,0,3.93-1.24,4.43-2.38v2.08h3.5Z"/><path class="cls-1" d="M57.59,25.59h3.5V17.43c0-2,.87-3.67,3.33-3.7s3.17,1.66,3.17,3.83v8h3.5v-8.9c0-2.56-.87-6.18-5.6-6.21A4.74,4.74,0,0,0,61,12.94c0-.69,0-1.35,0-1.85H57.59Z"/><path class="cls-1" d="M72.34,9.09h3.5v-3h-3.5Zm0,16.5h3.5V11.09h-3.5Z"/><path class="cls-1" d="M79.34,25.59h3.5v-12h2.42l-1-2.5H82.84v-5h-3.5v5h-2.5v2.5h2.5Z"/><path class="cls-1" d="M88.59,30.59h3.7l7.64-19.5h-3.7l-3.49,9.65L89.2,11.09H85.5L91,25Z"/></svg>